/* XPM */
static char * door_xpm[] = {
"128 128 11 1",
" 	c None",
".	c #91736D",
"+	c #56505B",
"@	c #815C5F",
"#	c #988177",
"$	c #828C92",
"%	c #9CA8AA",
"&	c #636B76",
"*	c #987064",
"=	c #B4957D",
"-	c #C6B392",
"..........................+.++.++++++.+++++++++@@@........................................+.++.++++++.+++++++++@@@............. ",
"..........................@.@@.@@@@@@.@@@@@@+++@@@@@@@@@.@................................@.@@.@@@@@@.@@@@@@+++@@@@@@@@@.@..... ",
".........................................@@@@++@@@@@@@...................................................@@@@++@@@@@@@......... ",
"...................................@.@@@@@@@@++@@@@@@@@@@@@@.......................................@.@@@@@@@@++@@@@@@@@@@@@@... ",
".......................................@@@@@@++@@@@@@@@@.@.............................................@@@@@@++@@@@@@@@@.@..... ",
"@@@@@@@@@@@@@@@@@@@@@@@@@@@@@@@@@@@@@@@@@@@@++++@@@@@@@@@@@@@@@@@@@@@@@@@@@@@@@@@@@@@@@@@@@@@@@@@@@@@@@@@@@@++++@@@@@@@@@@@@@@@ ",
"+++++++++++++++++++++++++++++++++++++++++++++++++++++++++++++++++++++++++++++++++++++++++++++++++++++++++++++++++++++++++++++++ ",
"+++++++++++++++++++++++++++++++++++++++++++++++++++++++++++++++++++++++++++++++++++++++++++++++++++++++++++++++++++++++++++++++ ",
"@@@@@@@@@@@@@@++++@@@@@@@@@@@@@@@@@@@@@@@@@@@@@@@@@@@@@@@@@@@@@@@@@@@@@@@@@@@@++++@@@@@@@@@@@@@@@@@@@@@@@@@@@@@@@@@@@@@@@@@@@@@ ",
"............@@@++@@@........................................................@@@++@@@........................................... ",
".......@.@@@@@@++@@@...................................................@.@@@@@@++@@@........................................... ",
".............@@++@@@@@@.@..................#.#########.......................@@++@@@@@@.@..................#.#########......... ",
".............@@++@@@@......................#.#########.......................@@++@@@@......................#.#########......... ",
"............@@@+++++++++.++.+......................#........................@@@+++++++++.++.+......................#........... ",
".............@@+++@@@@@@.@@.@....................######.#....................@@+++@@@@@@.@@.@....................######.#...... ",
"..........++@@@++@@@++....................................................++@@@++@@@++......................................... ",
"........@@++@@@++@@@++..................++++++++++++++++++++++++++++++++++++++++++++++++....................................... ",
"............@@+++@@@@@@@.............++++++++++++++++++++++++++++++++++++++++++++++++++++++.................................... ",
"..+.++.++++++++++@@@.@.............+++++$$$$$$$$$$$$$$$$$$$$$$$%%$%%%%%%%$%$$$$$$$$$$$$$+++++.................................. ",
"..@.@@.@@@@@@@@++@@@@@@@@@.........++$$$&&&&&&&&&&&&&&&&&&&&&&&&&&&&&&&&&&&&&&&&&&&&&&&&$$$++.................................. ",
"........@.@@@@@++@@@@@@@.........++$$&&&++++++++++++++++++++++++++++++++++++++++++++++++&&&$$++................................ ",
"@@@@@@@@@@@@@@++++@@@@@@@@@@@@@@@++&&++++++++++++++++++++++++++++++++++++++++++++++++++++++&&++@@@@@@@@@@@@@@@@@@@@@@@@@@@@@@@@ ",
"+++++++++++++++++++++++++++++++++$$+++++******++**************++++**************++******+++++$$++++++++++++++++++++++++++++++++ ",
"+++++++++++++++++++++++++++++++++&&++*********++***************++***************++*********++&&++++++++++++++++++++++++++++++++ ",
"@@@@@@@@@@@@@@@@@@@@@@@@@@@@@++$&++===========++==============*++=============**++=========**++&$++@@@@@@@@@++++@@@@@@@@@@@@@@@ ",
".............................++$&++=========**++=============**++==========*=***++========***++&$++......@@@@++@@@............. ",
"............................++$&++====++=====*++=======++======++======++======*++======++===*++&$++.@.@@@@@@++@@@@.@.......... ",
".######.#...................++$&++====++=====*++=======++=====*++======++======*++======++==**++&$++......@@@++@@.............. ",
".....#.....................++$&++=====**=====*++=======**=====*++======**======*++======**====*++&$++++++++++++@@@@@........... ",
".#.#####...................++$&++============*++==============*++==============*++============*++&$++@@@@@@@+++@@@............. ",
".#.#####...................++$&++============*++==============*++==============*++============*++&$++....@.@@++@@@@@@.......... ",
"...........................++$&++============*++======----=-==*++==============*++============*++&$++...++@@@++@@@++........... ",
"..........................++$&++=============*++=======-======*++==============*++============**++&$++@@++@@@++@@@++........... ",
"..........................++$&++=============*++===-=----=====*++==============*++============**++&$++...@@@@++@@@@@@@......... ",
"..........................++$&++=============*++===-=----=====*++==============*++============**++&$+++++++++++@@@@............ ",
"..........................++$&++=============*++==============*++==============*++============**++&$++@@@@@@@++@@@@@@@@.@...... ",
"..........................++$&++=============*++==============*++==============*++============**++&$++..@@@@@++@@@@.@.......... ",
"@@@@@@@@@@@@@@@@@@@@@@@@@@++$&++=============*++==============*++==============*++===========***++&$++@@@@@@++++@@@@@@@@@@@@@@@ ",
"++++++++++++++++++++++++++++$&++=============*++==============*++===============++============**++&$+++++++++++++++++++++++++++ ",
"++++++++++++++++++++++++++++$&++===========***++===========*=**++===========****++=======*=*****++&$+++++++++++++++++++++++++++ ",
"@@@@@@@@@@@@@@++++@@@@@@@@++$&++============**++===============++============***++==========****++&$++@@@@@@@@@@@@@@@@@@@@@@@@@ ",
"...........@@@@++@@.......++$&+++************++++*************++++*************++++************+++&$++......................... ",
"......@.@@@@@@@++@@@@@@@.@++$&++++++++++++++++++++++++++++++++++++++++++++++++++++++++++++++++++++&$++......................... ",
"............@@@++@@@@.....++$&++++++++++++++++++++++++++++++++++++++++++++++++++++++++++++++++++++&$++.....#.#########......... ",
".........@@@@@@++@@@@@@...++$&+++&&&&&&&&&&&&&&&&&&&&&&&&&&&&&&&&&&&&&&&&&&&&&&&&&&&&&&&&&&&&&&+++&$++.....#.#########......... ",
".............@@+++++++++.+++$&++&&$$$$$$$$$$$$$$$$$$$$$$$$$$$$$$$$$$$$$$$$$$$$$$$$$$$$$$$$$$$$&&++&$++.............#........... ",
"..........@@@@@+++@@@@@@.@++$&++&&&$$$$$$$$$$$$$$%$%%%%%%%%%%$$$$$$$$$$$$$$$$$$$$$$$$$$$$$$&$&&&++&$++...........######.#...... ",
"..........++@@@++@@@++....++$&++&$$$$$$$$$$$$$$$$%$%%%%%%%%%%$$$$$$$$$$$$$$$$$$$$$$$$$$$$$$$$$&&++&$++......................... ",
"........@@++@@@++@@@++....++$&++&$$$$$$$$$$$$$$$$$$$$%$$$$$$$$$$$$$$$$$$$$$$$$$$$$$$$$$$$$$$$$&&++&$++......................... ",
"............@@+++@@@@@@.@.++$&++&$$$$++&$$$$$$$$$$$%%%%%%%$%$$$$$$$$$$$$$$$$$$$$$$$$$$$$&++$$$&&++&$++......................... ",
"..+.++.++++++++++@@@@.....++$&++&$$$$++&$$$$$$$$$$$$$$$$$$$$$$$$$$$$$$$$$$$$$$$$$$$$$$$$&++$$$&&++&$++......................... ",
"..@.@@.@@@@@@@@++@@@@@@@@@++$&++&$$$$$$$$$$$$$$$$$$$$%%%$%$$$$$$$$$$$$$$$$$$$$$$$$$$$$$$$$$$$&&&++&$++......................... ",
"..........@@@@@++@@@@@@.@.++$&++&&&&&&&$&$$$$$$$$$$$$$$$$$$$$$$$$$$$$$$$$$$$$$$$$$$$$$$$$&&&&&&&++&$++......................... ",
"@@@@@@@@@@@@@@++++@@@@@@@@++$&++&&$&$$$$$$$$$$$$$$$$$$$$$$$$$$$$$$$$$$$$$$$$$$$$$$$$$$$$$$$&&&&&++&$++@@@@@@@@@@@@@@@@@@@@@@@@@ ",
"++++++++++++++++++++++++++++%&++&&&&&&&&&&&&&&&&&&&&&&&&&&&&&&&&&&&&&&&&&&&&&&&&&&&&&&&&&&&&&&&&++&$+++++++++++++++++++++++++++ ",
"++++++++++++++++++++++++++++%&+++&&&&&&&&&&&&&&&&&&&&&&&&&&&&&&&&&&&&&&&&&&&&&&&&&&&&&&&&&&&&&&+++&$+++++++++++++++++++++++++++ ",
"@@@@@@@@@@@@@@@@@@@@@@@@@@++$&++++++++++++++++++++++++++++++++++++++++++++++++++++++++++++++++++++&$++@@@@@@++++@@@@@@@@@@@@@@@ ",
"..........................++%&++++++++++++++++++++++++++++++++++++++++++++++++++++++++++++++++++++&$++....@@@++@@@............. ",
".#######..................++%&++++++++++++++++++++++++++++++++++++++++++++++++++++++++++++++++++++&$++..@@@@@++@@@@@@.@........ ",
"....##....................++%&++++++++++++++++++++++++++++++++++++++++++++++++++++++++++++++++++++&$+++++++++++@@@@............ ",
"...#####.#................++%&+++************++++*************++++*************++++************+++&$++@@@@@@@++@@@@@@.......... ",
"...#####.#................++%&++**************++***************++***************++**************++&$++..++@@@++@@@++........... ",
"..........................++%&++==============++==============*++=============**++===========***++&$++.@++@@@++@@@++........... ",
"..........................++$&++============**++===========*=**++============***++=========*****++&$++..@@@@@++@@@@@@.......... ",
"..........................++%&++=============*++===============++==============*++============**++&$+++++++++++@@@............. ",
"..........................++$&++=============*++==============*++==============*++=========*=***++&$++@@@@@@+++@@@@@@@@@.@..... ",
"..........................++$&++=============*++==============*++==============*++============**++&$++...@@@@++@@@@@@@......... ",
"..........................++$&++=============*++==============*++==============*++============**++&$++@@@@@@@++@@@@@@@@@@@@@... ",
"..........................++$&++===-=----====*++==============*++======---=-===*++============**++&$++.@@@@@@++@@@@@@@@@.@..... ",
"@@@@@@@@@@@@@@@@@@@@@@@@@@++$&++===-=----====*++==============*++======---=-===*++============**++&$++@@@@@@++++@@@@@@@@@@@@@@@ ",
"++++++++++++++++++++++++++++$&++======-======*++==============*++=======-======*++============**++&$+++++++++++++++++++++++++++ ",
"++++++++++++++++++++++++++++$&++=====-----===*++==============*++===-=----=====*++============**++&$+++++++++++++++++++++++++++ ",
"@@@@@@@@@@@@@@++++@@@@@@@@++$&++=============*++==============*++==============*++============**++&$++@@@@@@@@@@@@@@@@@@@@@@@@@ ",
"............@@@++@@@......++$&++=============*++==============*++==============*++============**++&%++......................... ",
".......@.@@@@@@++@@@......++$&++=============*++==============*++==============*++============**++&%++......................... ",
".............@@++@@@@@@.@.++$&++=============*++==============*++==============*++============**++&%++.....#.#########......... ",
".............@@++@@@@.....++$&++=============*++==============*++==============*++============**++&%++.....#.#########......... ",
"............@@@+++++++++.+++$&++=============*++==============*++==============*++============**++&%++.............#........... ",
".............@@+++@@@@@@.@++$&++=============*++==============*++==============*++============**++&%++...........######.#...... ",
"..........++@@@++@@@++....++$&++=============*++=============**++==============*++===========***++&$++......................... ",
"........@@++@@@++@@@++....++$&++==============++==============*++==============*++=============*++&%++......................... ",
"............@@+++@@@@@@@..++$&++=========*=***++============***++===========*=**++=========*****++&%++......................... ",
"..+.++.++++++++++@@@.@....++$&++============**++=============**++===============++==========****++&$++......................... ",
"..@.@@.@@@@@@@@++@@@@@@@@@++$&+++************++++*************++++*************++++************+++&%++......................... ",
"........@.@@@@@++@@@@@@@..++$&++++++++++++++++++++++++++++++++++++++++++++++++++++++++++++++++++++&$++......................... ",
"@@@@@@@@@@@@@@++++@@@@@@@@++$&++++++++++++++++++++++++++++++++++++++++++++++++++++++++++++++++++++&$++@@@@@@@@@@@@@@@@@@@@@@@@@ ",
"++++++++++++++++++++++++++++$&+++&&&&&&&&&&&&&&&&&&&&&&&&&&&&&&&&&&&&&&&&&&&&&&&&&&&&&&&&&&&&&&+++&$+++++++++++++++++++++++++++ ",
"++++++++++++++++++++++++++++$&++&&$$$$$$$$$$$$$$$$$$$$$$$$$$$$$$$$$$$$$$$$$$$$$$$$$$$$$$$$$$$$&&++&$+++++++++++++++++++++++++++ ",
"@@@@@@@@@@@@@@@@@@@@@@@@@@++$&++&&&$&$$$$$$$$$$$$$$$$$$$$$$$$$$$$$%$%%%%%%%%%%%$$$$$$$$$$$$$$&&&++&$++@@@@@@++++@@@@@@@@@@@@@@@ ",
"..........................++$&++&$$$$$$$$$$$$$$$$$$$$$$$$$$$$$$$$$%$%%%%%%%%%%%$$$$$$$$$$$$$$$$&++&$++...@@@@++@@@............. ",
"..........................++$&++&$$$$$$$$$$$$$$$$$$$$$$$$$$$$$$$$$$$$$$$$$$%$$$$$$$$$$$$$$$$$$$&++&$++.@@@@@@++@@@@.@.......... ",
".######.#.................++$&++&$$$$++&$$$$$$$$$$$$$$$$$$$$$$$$$$$$$%$%%$%%%$$$$$$$$$$$&++$$$$&++&$++....@@@++@@.............. ",
".....#....................++$&++&$$$$++&$$$$$$$$$$$$$$$$$$$$$$$$$$$$$$$$$$$$$$$$$$$$$$$$&++$$$$&++&$+++++++++++@@@@@........... ",
".#.#####..................++$&++&&&$$$$$$$$$$$$$$$$$$$$$$$$$$$$$$$$$$$$$%%%$$$$$$$$$$$$$$$$$$$$&++&$++@@@@@@+++@@@............. ",
".#.#####..................++$&++&&&&&&$&$$$$$$$$$$$$$$$$$$$$$$$$$$$$$$$$$$$$$$$$$$$$$$$&$&&&&&&&++&$++...@.@@++@@@@@@.......... ",
"..........................++$&++&&&&&$$$$$$$$$$$$$$$$$$$$$$$$$$$$$$$$$$$$$$$$$$$$$$$$$$$$$$$&$&&++&$++..++@@@++@@@++........... ",
"..........................++$&++&&&&&&&&&&&&&&&&&&&&&&&&&&&&&&&&&&&&&&&&&&&&&&&&&&&&&&&&&&&&&&&&++&$++@@++@@@++@@@++........... ",
"..........................++$&+++&&&&&&&&&&&&&&&&&&&&&&&&&&&&&&&&&&&&&&&&&&&&&&&&&&&&&&&&&&&&&&+++&$++...@@@@++@@@@@@@......... ",
"..........................++$&++++++++++++++++++++++++++++++++++++++++++++++++++++++++++++++++++++&$+++++++++++@@@@............ ",
"..........................++$&++++++++++++++++++++++++++++++++++++++++++++++++++++++++++++++++++++&$++@@@@@@@++@@@@@@@@.@...... ",
"..........................++$&++++++++++++++++++++++++++++++++++++++++++++++++++++++++++++++++++++&$++..@@@@@++@@@@.@.......... ",
"@@@@@@@@@@@@@@@@@@@@@@@@@@++$&++++++++++++++++++++++++++++++++++++++++++++++++++++++++++++++++++++&$++@@@@@@++++@@@@@@@@@@@@@@@ ",
"++++++++++++++++++++++++++++$&+++************++++*************++++*************++++************+++&$+++++++++++++++++++++++++++ ",
"++++++++++++++++++++++++++++$&++**************++***************++***************++**************++&$+++++++++++++++++++++++++++ ",
"@@@@@@@@@@@@@@++++@@@@@@@@++$&++=============*++=============**++==============*++==========****++&$++@@@@@@@@@@@@@@@@@@@@@@@@@ ",
"...........@@@@++@@.......++$&++======++=====*++=======++===***++======++======*++======++=*****++&$++......................... ",
"......@.@@@@@@@++@@@@@@@.@++$&++======++=*=***++=======++=====*++======++==*****++======++===***++&$++......................... ",
"............@@@++@@@@.....++&&++============**++==============*++===========*=**++===========***++&&++.....#.#########......... ",
".........@@@@@@++@@@@@@...++&&+++************++++*************++++*************++++************+++&&++.....#.#########......... ",
".............@@+++++++++.+++++++++++++++++++++++++++++++++++++++++++++++++++++++++++++++++++++++++++++.............#........... ",
"..........@@@@@+++@@@@@@.@++++++++++++++++++++++++++++++++++++++++++++++++++++++++++++++++++++++++++++...........######.#...... ",
"..........++@@@++@@@++....++++++++++++++++++++++++++++++++++++++++++++++++++++++++++++++++++++++++++++......................... ",
"........@@++@@@++@@@++..................................................@@++@@@++@@@++......................................... ",
"............@@+++@@@@@@.@...................................................@@+++@@@@@@.@...................................... ",
"..+.++.++++++++++@@@@.............................................+.++.++++++++++@@@@.......................................... ",
"..@.@@.@@@@@@@@++@@@@@@@@@........................................@.@@.@@@@@@@@++@@@@@@@@@..................................... ",
"..........@@@@@++@@@@@@.@.................................................@@@@@++@@@@@@.@...................................... ",
"@@@@@@@@@@@@@@++++@@@@@@@@@@@@@@@@@@@@@@@@@@@@@@@@@@@@@@@@@@@@@@@@@@@@@@@@@@@@++++@@@@@@@@@@@@@@@@@@@@@@@@@@@@@@@@@@@@@@@@@@@@@ ",
"+++++++++++++++++++++++++++++++++++++++++++++++++++++++++++++++++++++++++++++++++++++++++++++++++++++++++++++++++++++++++++++++ ",
"+++++++++++++++++++++++++++++++++++++++++++++++++++++++++++++++++++++++++++++++++++++++++++++++++++++++++++++++++++++++++++++++ ",
"@@@@@@@@@@@@@@@@@@@@@@@@@@@@@@@@@@@@@@@@@@@@++++@@@@@@@@@@@@@@@@@@@@@@@@@@@@@@@@@@@@@@@@@@@@@@@@@@@@@@@@@@@@++++@@@@@@@@@@@@@@@ ",
"..........................................@@@++@@@........................................................@@@++@@@............. ",
".#######................................@@@@@++@@@@@@.@..........#######................................@@@@@++@@@@@@.@........ ",
"....##.............................+.++++++++++@@@@.................##.............................+.++++++++++@@@@............ ",
"...#####.#.........................@.@@@@@@@@++@@@@@@..............#####.#.........................@.@@@@@@@@++@@@@@@.......... ",
"...#####.#..............................++@@@++@@@++...............#####.#..............................++@@@++@@@++........... ",
".......................................@++@@@++@@@++...................................................@++@@@++@@@++........... ",
"                                                                                                                                "};
