/* XPM */
static char * player_xpm[] = {
"128 128 18 1",
" 	c None",
".	c #91736D",
"+	c #56505B",
"@	c #815C5F",
"#	c #988177",
"$	c #323443",
"%	c #E86363",
"&	c #BD3B53",
"*	c #F29478",
"=	c #C58D71",
"-	c #A45B51",
";	c #95A2B0",
">	c #6D718E",
",	c #E39B89",
"'	c #FDCAAB",
")	c #23787E",
"!	c #DEB892",
"~	c #36A57C",
"..........................+.++.++++++.+++++++++@@@........................................+.++.++++++.+++++++++@@@............. ",
"..........................@.@@.@@@@@@.@@@@@@+++@@@@@@@@@.@................................@.@@.@@@@@@.@@@@@@+++@@@@@@@@@.@..... ",
".........................................@@@@++@@@@@@@...................................................@@@@++@@@@@@@......... ",
"...................................@.@@@@@@@@++@@@@@@@@@@@@@.......................................@.@@@@@@@@++@@@@@@@@@@@@@... ",
".......................................@@@@@@++@@@@@@@@@.@.............................................@@@@@@++@@@@@@@@@.@..... ",
"@@@@@@@@@@@@@@@@@@@@@@@@@@@@@@@@@@@@@@@@@@@@++++@@@@@@@@@@@@@@@@@@@@@@@@@@@@@@@@@@@@@@@@@@@@@@@@@@@@@@@@@@@@++++@@@@@@@@@@@@@@@ ",
"+++++++++++++++++++++++++++++++++++++++++++++++++++++++++++++++++++++++++++++++++++++++++++++++++++++++++++++++++++++++++++++++ ",
"+++++++++++++++++++++++++++++++++++++++++++++++++++++++++++++++++++++++++++++++++++++++++++++++++++++++++++++++++++++++++++++++ ",
"@@@@@@@@@@@@@@++++@@@@@@@@@@@@@@@@@@@@@@@@@@@@@@@@@@@@@@@@@@@@@@@@@@@@@@@@@@@@++++@@@@@@@@@@@@@@@@@@@@@@@@@@@@@@@@@@@@@@@@@@@@@ ",
"............@@@++@@@........................................................@@@++@@@........................................... ",
".......@.@@@@@@++@@@...................................................@.@@@@@@++@@@........................................... ",
".............@@++@@@@@@.@..................#.#########.......................@@++@@@@@@.@..................#.#########......... ",
".............@@++@@@@......................#.#########.......................@@++@@@@......................#.#########......... ",
"............@@@+++++++++.++.+......................#........................@@@+++++++++.++.+......................#........... ",
".............@@+++@@@@@@.@@.@....................######.#....................@@+++@@@@@@.@@.@....................######.#...... ",
"..........++@@@++@@@++....................................................++@@@++@@@++......................................... ",
"........@@++@@@++@@@++..................................................@@++@@@++@@@++......................................... ",
"............@@+++@@@@@@@....................................................@@+++@@@@@@@....................................... ",
"..+.++.++++++++++@@@.@............................................+.++.++++++++++@@@.@......................................... ",
"..@.@@.@@@@@@@@++@@@@@@@@@........................................@.@@.@@@@@@@@++@@@@@@@@@..................................... ",
"........@.@@@@@++@@@@@@@................................................@.@@@@@++@@@@@@@....................................... ",
"@@@@@@@@@@@@@@++++@@@@@@@@@@@@@@@@@@@@@@@@@@@@@@@@@@@@@@@@@@@@@@@@@@@@@@@@@@@@++++@@@@@@@@@@@@@@@@@@@@@@@@@@@@@@@@@@@@@@@@@@@@@ ",
"+++++++++++++++++++++++++++++++++++++++++++++++++++++++++++++++++++++++++++++++++++++++++++++++++++++++++++++++++++++++++++++++ ",
"+++++++++++++++++++++++++++++++++++++++++++++++++++++++++++++++++++++++++++++++++++++++++++++++++++++++++++++++++++++++++++++++ ",
"@@@@@@@@@@@@@@@@@@@@@@@@@@@@@@@@@@@@@@@@@@@@++++@@@@@@@@@@@@@@@@@@@@@@@@@@@@@@@@@@@@@@@@@@@@@@@@@@@@@@@@@@@@++++@@@@@@@@@@@@@@@ ",
".........................................@@@@++@@@.......................................................@@@@++@@@............. ",
".....................................@.@@@@@@++@@@@.@................................................@.@@@@@@++@@@@.@.......... ",
".######.#.................................@@@++@@................######.#.................................@@@++@@.............. ",
".....#.............................+.++++++++++@@@@@.................#.............................+.++++++++++@@@@@........... ",
".#.#####...........................@.@@@@@@@+++@@@...............#.#####...........................@.@@@@@@@+++@@@............. ",
".#.#####.................................@.@@++@@@@@@............#.#####.................................@.@@++@@@@@@.......... ",
"........................................++@@@++@@@++....................................................++@@@++@@@++........... ",
"......................................@@++@@@++@@@++..................................................@@++@@@++@@@++........... ",
".........................................@@@@++@@@@@@@...................................................@@@@++@@@@@@@......... ",
"..........................+.++.++++++.+++++++++@@@@.......................................+.++.++++++.+++++++++@@@@............ ",
"..........................@.@@.@@@@@@.@@@@@@@++@@@@@@@@.@.................................@.@@.@@@@@@.@@@@@@@++@@@@@@@@.@...... ",
"........................................@@@@@++@@@@.@...................................................@@@@@++@@@@.@.......... ",
"@@@@@@@@@@@@@@@@@@@@@@@@@@@@@@@@@@@@@@@@@@@@++++@@@@@@@@@@@@@@@@@@@@@@@@@@@@@@@@@@@@@@@@@@@@@@@@@@@@@@@@@@@@++++@@@@@@@@@@@@@@@ ",
"+++++++++++++++++++++++++++++++++++++++++++++++++++++++++++++++++++++++++++++++++++++++++++++++++++++++++++++++++++++++++++++++ ",
"++++++++++++++++++++++++++++++++++++++++++++++++++$$$$$$$++++++++++++++++++++++++++++++++++++++++++++++++++++++++++++++++++++++ ",
"@@@@@@@@@@@@@@++++@@@@@@@@@@@@@@@@@@@@@@@@@@@@@@@@$$%%%%%$@@@@@@@@@@@@@@@@@@@@++++@@@@@@@@@@@@@@@@@@@@@@@@@@@@@@@@@@@@@@@@@@@@@ ",
"...........@@@@++@@...............................$$%%&&&$.................@@@@++@@............................................ ",
"......@.@@@@@@@++@@@@@@@.@........................$$&&&$$$$$$$........@.@@@@@@@++@@@@@@@.@..................................... ",
"............@@@++@@@@......................#.#######$$$$$&%%%$$$$$$$$$$$$$$$$@@++@@@@......................#.#########......... ",
".........@@@@@@++@@@@@@....................#.#######$$$$$&&$$$$%%%%%%%%%%%%%%$$++@@@@@@....................#.#########......... ",
".............@@+++++++++.++.+.....................$$%%&$$$$$&&&&&%%*%*****%%%%%$$+++++++.++.+......................#........... ",
"..........@@@@@+++@@@@@@.@@.@....................#$$&&&$$$&&&%%%%%%%%%%%*%%%%%%%$$@@@@@@.@@.@....................######.#...... ",
"..........++@@@++@@@++............................$$$$$$$$&&&&%%%%%%%%%***%*%%%%%$$@++......................................... ",
"........@@++@@@++@@@++............................$$$$$$&&&&%%%%%%%%%%%***%*%%%%%$$@++......................................... ",
"............@@+++@@@@@@.@.....................$$$.....$$&&&&%%%%%%%%%%%%%%%%%%&%&&$$@@@.@...................................... ",
"..+.++.++++++++++@@@@.........................$==$$...$$&&&&%%%%%%%%%%%%%%%%%%%%%&$$@.......................................... ",
"..@.@@.@@@@@@@@++@@@@@@@@@....................$==$$...$$&&&&&&&&&%&%%%%%%%%%%%&&&&$$@@@@@@..................................... ",
"..........@@@@@++@@@@@@.@......................$$--$$.$$&&&&&%&%%%%%%%%%%%%%%%%%&&$$@@@.@...................................... ",
"@@@@@@@@@@@@@@++++@@@@@@@@@@@@@@@@@@@@@@@@@@@@@$$--$$@$$&&&&&&&&&&&&&&&&&&&&&&&&&&$$@@@@@@@@@@@@@@@@@@@@@@@@@@@@@@@@@@@@@@@@@@@ ",
"+++++++++++++++++++++++++++++++++++++++++++++++$$$$$$+$$&&&&&&&&&&&&&&&&&&&&&&&&&&$$+++++++++++++++++++++++++++++++++++++++++++ ",
"+++++++++++++++++++++++++++++++++++++++++++++$$;;>;>>$$$$$&$$$$$$$$$$$$$$$$$$$$$$$$$+++++++++++++++++++++++++++++++++++++++++++ ",
"@@@@@@@@@@@@@@@@@@@@@@@@@@@@@@@@@@@@@@@@@@@@+$$;;>;>>$$$&&&&$$$$$$$$$$$$$$$$$$$$$$$$@@@@@@@@@@@@@@@@@@@@@@@@++++@@@@@@@@@@@@@@@ ",
"..........................................@@@$$$$$$$$$$$$$$$$$,,,,,,,,,,,,,,,,,,,$$$......................@@@++@@@............. ",
".#######................................@@@$$$$$$$$$$$$$&$$$,,,'''''''''''''''''''$$....................@@@@@++@@@@@@.@........ ",
"....##.............................+.++++$$$$$$>>>>>$$$$$$,,,,,,''$$$$$'',','$$$$'$$...............+.++++++++++@@@@............ ",
"...#####.#.........................@.@@@@$$$>>>>>>>>>>$$$$,''''''''$$'''''''''$$''$$...............@.@@@@@@@@++@@@@@@.......... ",
"...#####.#.............................$$$$$$>>>>$>$$$$$,,,''''''',,,'''$$$$$',,,'$$....................++@@@++@@@++........... ",
".......................................$$$>>>>>>>>>>$$$$,$,'''''''''''''''''''''''$$...................@++@@@++@@@++........... ",
".....................................$$$$$$$$$$$$$$$$$$$,$,,,','''''''''',,,''''''$$....................@@@@@++@@@@@@.......... ",
"..........................+.++.++++++$$----------------$,,,,''''''''''''''''''''''$$......+.++.++++++.+++++++++@@@............. ",
"..........................@.@@.@@@@@@$$----------------$$$$,,,,,,''''''''''''''',,$$......@.@@.@@@@@@.@@@@@@+++@@@@@@@@@.@..... ",
".....................................$$--=========-=----$$,,,,,'''''''''''''''''',$$.....................@@@@++@@@@@@@......... ",
"...................................@.$$---======------$$$$$$$,,,,,,,,,,,,,,,,,,,,$$................@.@@@@@@@@++@@@@@@@@@@@@@... ",
".....................................$$============---$$$$$$$$$$,,,,,,,,,,,,,,,$$$.....................@@@@@@++@@@@@@@@@.@..... ",
"@@@@@@@@@@@@@@@@@@@@@@@@@@@@@@@@@@@@@$$-==========--$$))))$$$$$$$$$$$$$$$$$$$$$$$$$$@@@@@@@@@@@@@@@@@@@@@@@@++++@@@@@@@@@@@@@@@ ",
"+++++++++++++++++++++++++++++++++++++$$==!!!=!======$$~~))$$--$$$$$$$$$$$$$$$$--$$$$+++++++++++++++++++++++++++++++++++++++++++ ",
"+++++++++++++++++++++++++++++++++++++$$==!!!=!====$$~~~)))$$$$$$))))$$$$$$))$$$$$$))$$+++++++++++++++++++++++++++++++++++++++++ ",
"@@@@@@@@@@@@@@++++@@@@@@@@@@@@@@@@@@@$$===!=======$$~~~~~)$$--$$~~~~$$$$$$~)$$--$$~~$$@@@@@@@@@@@@@@@@@@@@@@@@@@@@@@@@@@@@@@@@@ ",
"............@@@++@@@.................$$==!!!!=!===$$~~~~~)$$==$$~~~~~~$$~~~)$$==$$)~$$......................................... ",
".......@.@@@@@@++@@@.................$$===========$$~~~~~)$$==$$~~~~$~$$~$~)$$==$$)~$$......................................... ",
".............@@++@@@@@@.@............$$=!=!!!=====$$~~~$$$$$==$$~~~~$~$$~$~)$$==$$)~$$@.@..................#.#########......... ",
".............@@++@@@@................$$===========$$~~~~$$$$==$$)~~~~~$$~~))$$==$$)~$$.....................#.#########......... ",
"............@@@+++++++++.++.+........$$===========$$$$$$$$$$--$$~~~~~~~~~~~)$$--$$$$$$++.++.+......................#........... ",
".............@@+++@@@@@@.@@.@........$$===========$$$$$$$$$$==$$))~~~~~)~)))$$==$$$$$$@@.@@.@....................######.#...... ",
"..........++@@@++@@@++...............$$-======-=--$$,,,,$$$$--$$)~~~~~~~~~))$$--$$,,$$......................................... ",
"........@@++@@@++@@@++...............$$===========$$''''$$$$--$$))))))))))))$$--$$''$$......................................... ",
"............@@+++@@@@@@@.............$$---=====-----$$$$$$$$$$$$$$$$$$$$$$)$$$$$$$$$@@@@....................................... ",
"..+.++.++++++++++@@@.@.................$$========---$$$$$$$$--$$))$$$$)$))))$$--$$$$.@......................................... ",
"..@.@@.@@@@@@@@++@@@@@@@@@.............$$-------------$$$$$$$$$$$$$$$$$$$$$$$$$$$$@@@@@@@@..................................... ",
"........@.@@@@@++@@@@@@@.................$$$$$$$$$$$$$$$$$$$$$$$$$$$$$$$$$$$$$$$$$@@@@@@....................................... ",
"@@@@@@@@@@@@@@++++@@@@@@@@@@@@@@@@@@@@@@@$$$$$$$$$$$$$$$$$$$$$$$$$$$$$$$$$$$$$$$$$@@@@@@@@@@@@@@@@@@@@@@@@@@@@@@@@@@@@@@@@@@@@@ ",
"++++++++++++++++++++++++++++++++++++++++++++++++++++++$$$$$$$$$$$$$$$$$$$$$$$$$$$$+++++++++++++++++++++++++++++++++++++++++++++ ",
"++++++++++++++++++++++++++++++++++++++++++++++++++++++$$$$$$$$++++++++++++$$$$$$$$+++++++++++++++++++++++++++++++++++++++++++++ ",
"@@@@@@@@@@@@@@@@@@@@@@@@@@@@@@@@@@@@@@@@@@@@++++@@@@@@$$$$$$$$@@@@@@@@@@@@$$$$$$$$@@@@@@@@@@@@@@@@@@@@@@@@@@++++@@@@@@@@@@@@@@@ ",
".........................................@@@@++@@@....$$$$$$$$............$$$$$$$$.......................@@@@++@@@............. ",
".....................................@.@@@@@@++@@@@.@.$$$$$$..............$$$$$$.....................@.@@@@@@++@@@@.@.......... ",
".######.#.................................@@@++@@.....$$$$$$.....######.#.$$$$$$..........................@@@++@@.............. ",
".....#.............................+.++++++++++@@@@@..$$$$...........#....$$$$.....................+.++++++++++@@@@@........... ",
".#.#####...........................@.@@@@@@@+++@@@...............#.#####...........................@.@@@@@@@+++@@@............. ",
".#.#####.................................@.@@++@@@@@@............#.#####.................................@.@@++@@@@@@.......... ",
"........................................++@@@++@@@++....................................................++@@@++@@@++........... ",
"......................................@@++@@@++@@@++..................................................@@++@@@++@@@++........... ",
".........................................@@@@++@@@@@@@...................................................@@@@++@@@@@@@......... ",
"..........................+.++.++++++.+++++++++@@@@.......................................+.++.++++++.+++++++++@@@@............ ",
"..........................@.@@.@@@@@@.@@@@@@@++@@@@@@@@.@.................................@.@@.@@@@@@.@@@@@@@++@@@@@@@@.@...... ",
"........................................@@@@@++@@@@.@...................................................@@@@@++@@@@.@.......... ",
"@@@@@@@@@@@@@@@@@@@@@@@@@@@@@@@@@@@@@@@@@@@@++++@@@@@@@@@@@@@@@@@@@@@@@@@@@@@@@@@@@@@@@@@@@@@@@@@@@@@@@@@@@@++++@@@@@@@@@@@@@@@ ",
"+++++++++++++++++++++++++++++++++++++++++++++++++++++++++++++++++++++++++++++++++++++++++++++++++++++++++++++++++++++++++++++++ ",
"+++++++++++++++++++++++++++++++++++++++++++++++++++++++++++++++++++++++++++++++++++++++++++++++++++++++++++++++++++++++++++++++ ",
"@@@@@@@@@@@@@@++++@@@@@@@@@@@@@@@@@@@@@@@@@@@@@@@@@@@@@@@@@@@@@@@@@@@@@@@@@@@@++++@@@@@@@@@@@@@@@@@@@@@@@@@@@@@@@@@@@@@@@@@@@@@ ",
"...........@@@@++@@........................................................@@@@++@@............................................ ",
"......@.@@@@@@@++@@@@@@@.@............................................@.@@@@@@@++@@@@@@@.@..................................... ",
"............@@@++@@@@......................#.#########......................@@@++@@@@......................#.#########......... ",
".........@@@@@@++@@@@@@....................#.#########...................@@@@@@++@@@@@@....................#.#########......... ",
".............@@+++++++++.++.+......................#.........................@@+++++++++.++.+......................#........... ",
"..........@@@@@+++@@@@@@.@@.@....................######.#.................@@@@@+++@@@@@@.@@.@....................######.#...... ",
"..........++@@@++@@@++....................................................++@@@++@@@++......................................... ",
"........@@++@@@++@@@++..................................................@@++@@@++@@@++......................................... ",
"............@@+++@@@@@@.@...................................................@@+++@@@@@@.@...................................... ",
"..+.++.++++++++++@@@@.............................................+.++.++++++++++@@@@.......................................... ",
"..@.@@.@@@@@@@@++@@@@@@@@@........................................@.@@.@@@@@@@@++@@@@@@@@@..................................... ",
"..........@@@@@++@@@@@@.@.................................................@@@@@++@@@@@@.@...................................... ",
"@@@@@@@@@@@@@@++++@@@@@@@@@@@@@@@@@@@@@@@@@@@@@@@@@@@@@@@@@@@@@@@@@@@@@@@@@@@@++++@@@@@@@@@@@@@@@@@@@@@@@@@@@@@@@@@@@@@@@@@@@@@ ",
"+++++++++++++++++++++++++++++++++++++++++++++++++++++++++++++++++++++++++++++++++++++++++++++++++++++++++++++++++++++++++++++++ ",
"+++++++++++++++++++++++++++++++++++++++++++++++++++++++++++++++++++++++++++++++++++++++++++++++++++++++++++++++++++++++++++++++ ",
"@@@@@@@@@@@@@@@@@@@@@@@@@@@@@@@@@@@@@@@@@@@@++++@@@@@@@@@@@@@@@@@@@@@@@@@@@@@@@@@@@@@@@@@@@@@@@@@@@@@@@@@@@@++++@@@@@@@@@@@@@@@ ",
"..........................................@@@++@@@........................................................@@@++@@@............. ",
".#######................................@@@@@++@@@@@@.@..........#######................................@@@@@++@@@@@@.@........ ",
"....##.............................+.++++++++++@@@@.................##.............................+.++++++++++@@@@............ ",
"...#####.#.........................@.@@@@@@@@++@@@@@@..............#####.#.........................@.@@@@@@@@++@@@@@@.......... ",
"...#####.#..............................++@@@++@@@++...............#####.#..............................++@@@++@@@++........... ",
".......................................@++@@@++@@@++...................................................@++@@@++@@@++........... ",
"                                                                                                                                "};
