/* XPM */
static char *wall[] = {
/* columns rows colors chars-per-pixel */
"128 128 4 1 ",
"  c #323443",
". c #7F4A45",
"X c #A96753",
"o c #BB8B63",
/* pixels */
"                                                                                                                                ",
"                                                                                                                                ",
"                                                                                                                                ",
"                                                                                                                                ",
"                                                                                                                                ",
"                                                                                                                                ",
"                                                                                                                                ",
"                                                                                                                                ",
"                                                                                                                                ",
"                                                                                                                                ",
"                                                                                                                                ",
"                                                                                                                                ",
"               ..................................................................    .......................                    ",
"                . XXXXXXXXXXXXXXXXXXXXXXXXXXXXXXXXXXXXXXXXXXXXXXXXXXXXXXXXXXXX....  ....XXXXXXXXXXXXXXXXX..                     ",
"              ......X.XXXXXXXXXXXXXXXXXXXXXXXXXXXXXXXXXXXXXXXXXXXXXXXXXXXX.X......  ......X.XXXXXXXXX.X.......                  ",
"                .XXXXXXXXXXXXXXXXXXXXXXXXXXXXXoXoooooooooXXXXXXXXXXXXXXXXXXXXXX...  ...XXXXXXXXXXXXXXXXXXX..                    ",
"             ......XXXXXXXXXXXXXXXXXXXXXXXXXXXoXoooooooooXXXXXXXXXXXXXXXXXXXX.....  .....XXXXXXXXXXXXXXXXX...                   ",
"              ....XXXXXXXXXXXXXXXXXXXXXXXXXXXXXXXXXXXXoXXXXXXXXXXXXXXXXXXXXXXXXX..         X  X XXXXXXX......                   ",
"              .......X..X.XXXXXXXXXXXXXXXXXXXXXXXXXXooooooXoXXXXXXXXXXXXXXXX......   ......X..X.XXXXXXXXXX...                   ",
"              ...  XXXXXXXXXXXXXXXXXXXXXXXXXXXXXXXXXXXXXXXXXXXXXXXXXXXXXXXXXX  ...  ...  XXXXXXXXXXXXXXX.....                   ",
"              ...  XXXXXXXXXXXXXXXXXXXXXXXXXXXXXXXXXXXXXXXXXXXXXXXXXXXXXXXX..  ...  ...  XXXXXXXXXXXXXXXX....                   ",
"              .......XXXXXXXXXXXXXXXXXXXXXXXXXXXXXXXXXXXXXXXXXXXXXXXXXXXXXXXXX...   .......XXXXXXXXXXX.......                   ",
"                .X.XXXXXXXXXXXXXXXXXXXXXXXXXXXXXXXXXXXXXXXXXXXXXXXXXX X  X          ...X.XXXXXXXXXXXXXXX.X                      ",
"               ........XXXXXXXXXXXXXXXXXXXXXXXXXXXXXXXXXXXXXXXXXXXXXX.X..X........  .........XXXXX.X........ .                  ",
"                  ...XXXXXXXXXXXXXXXXXXXXXXXXXXXXXXXXXXXXXXXXXXXXXXXXXXXXXX.X.....  .......XXXXXXXXXXX..                        ",
"                .................................................................    .....................                      ",
"                                                                                                                                ",
"                                                                                                                                ",
"                    ...........................    ..............................................................               ",
"                      .XXXXXXXXXXXXXXXXXXXXX....  ...XXXXXXXXXXXXXXXXXXXXXXXXXXXXXXXXXXXXXXXXXXXXXXXXXXXXXXXXX.                 ",
"                   .....XXXXXXXXXXXXXXXX.X......  ....X.XXXXXXXXXXXXXXXXXXXXXXXXXXXXXXXXXXXXXXXXXXXXXXXXXX.X.......             ",
"                   ...XXXXXXXXXXXXXXXXXXXXXXX...  ..XXXXXXXXXXXXXXXXooooooXoXXXXXXXXXXXXXXXXXXXXXXXXXXXXXXXXXXX..               ",
"                   ......XXXXXXXXXXXXX X          .....XXXXXXXXXXXXXXXXXoXXXXXXXXXXXXXXXXXXXXXXXXXXXXXXXXXXXXXX... .            ",
"                   ...XXXXXXXXXXXXXXXX.X.......   ...XXXXXXXXXXXXXXXoXoooooXXXXXXXXXXXXXXXXXXXXXXXXXXXXX.X.......               ",
"                   .X.XXXXXXXXXXXXXXXXXXXXXX.X..  ......XXXXXXXXXXXXoXoooooXXXXXXXXXXXXXXXXXXXXXXXXXXXXXXXXXX.....              ",
"                   .......X.XXXXXXXXXXXXXXX  ...  ...  XXXXXXXXXXXXXXXXXXXXXXXXXXXXXXXXXXXXXXXXXXXXXXXXXXXXXX  ...              ",
"                     .XXXXXXXXXXXXXXXXXXX..  ...  ...  XXXXXXXXXXXXXXXXXXXXXXXXXXXXXXXXXXXXXXXXXXXXXXXXXXXX..  ...              ",
"                   .......XXXXXXXXXXXXXXXXXX...   .......XXXXXXXXXXXXXXXXXXXXXXXXXXXXXXXXXXXXXXXXXXXXXXXXXXXXX....              ",
"                    ...XXXXXXXXX X      X         ....XXXXXXXXXXXXXXXXXXXXXXXXXXXXXXXXXXXXXXXXXXXXXXXXXXXXXXXX....              ",
"                  ...........XXX.X......X.......  ........X.XXXXXXXXXXXXXXXXXXXXXXXXXXXXXXXXXXXXXXXX.X....X........             ",
"                      .X.XXXXXXXXXXXXXXXXXX.....  ....X.XXXXXXXXXXXXXXXXXXXXXXXXXXXXXXXXXXXXXXXXXXXXXXXXXXXX .                  ",
"                    ...........................    ..............................................................               ",
"                                                                                                                                ",
"                                                                                                                                ",
"               ..................................................................    .......................                    ",
"                 .XXXXXXXXXXXXXXXXXXXXXXXXXXXXXXXXXXXXXXXXXXXXXXXXXXXXXXXXXXXX....  ....XXXXXXXXXXXXXXXXX..                     ",
"            . ......X.XXXXXXXXXXXXXXXXXXXXXXXXXXXXXXXXXXXXXXXXXXXXXXXXXXXX.X......  ......X.XXXXXXXXX.X.......                  ",
"               ..XXXXXXXXXXXXXXXXXXXXXXoXoooooooooXXXXXXXXXXXXXXXXXXXXXXXXXXXXX...  ...XXXXXXXXXXXXXXXXXXX..                    ",
"              .....XXXXXXXXXXXXXXXXXXXXoXoooooooooXXXXXXXXXXXXXXXXXXXXXXXXXXX.....  .....XXXXXXXXXXXXXXXXX...                   ",
"              ....XXXXXXXXXXXXXXXXXXXXXXXXXXXXXoXXXXXXXXXXXXXXXXXXXXXXXXXXXXXXXX..         X  X XXXXXXX......                   ",
"              .......X..X.XXXXXXXXXXXXXXXXXXXooooooXoXXX.X..........XXXXXXXX......   ......X..X.XXXXXXXXXX...                   ",
"              ...  XXXXXXXXXXXXXXXXXXXXXXXXXXXXXXXXXXXXXXXXX.......XXXXXXXXXX  ...  ...  XXXXXXXXXXXXXXX.....                   ",
"              ...  XXXXXXXXXXXXXXXXXXXXXXXXXXXXXXXXXXXXXX           X XXXXX..  ...  ...  XXXXXXXXXXXXXXXX....                   ",
"              .......XXXXXXXXXXXXXXXXXXXXXXXXXXXXXXXXXXXXXXX.     ....XXXXXXXX....  .......XXXXXXXXXXX.......                   ",
"               ..X.XXXXXXXXXXXXXXXXXXXXXXXXXXXXXXXXXXXXXXX X       XXXXXXXXXXX....  ...X.XXXXXXXXXXXXXXX.X..                    ",
"            ...........XXXXXXXXXXXXXXXXXXXXXXXXXXXXXXX........   .....XX..........  .........XXXXX.X.........                   ",
"                . ...XXXXXXXXXXXXXXXXXXXXXXXXXXXXXXXXXXX.X....   ....XXXXX.X......  .......XXXXXXXXXXX. .                       ",
"              ...............................................     ...............    ....................... .                  ",
"                                                                                                                                ",
"                                                                                                                                ",
"                    ...........................    ..........      ..............................................               ",
"                      .XXXXXXXXXXXXXXXXXXXXXX...  ...XXXXXXXXX    XXXXXXXXXXXXXXXXXXXXXXXXXXXXXXXXXXXXXXXXXXXX.                 ",
"                . ......XXXXXXXXXXXXXXXXXXX.....  .....X.XXXXX    XXXXXXooooooXoXXXXXXXXXXXXXXXXXXXXXXXXXX.X.......             ",
"                    ..XXXXXXXXXXXXXXXX X          ..XXXXXXXXXX    XXXXXXXXXoXXXXXXXXXXXXXXXXXXXXXXXXXXXXXXXXXXX..               ",
"                   ......XXXXXXXXXXXXX.X.......   ......XXXXXX    XXXXXXXooooooXoXXXXXXXXXXXXXXXXXXXXXXXXXXXXXX....             ",
"                   ..XXXXXXXXXXXXXXXXXXXXXX  ...  ...  XXXX...    ...X.XXooooooXoXXXXXXXXXXXXXXXXXXXXXXX.X........              ",
"                   ..XXXXXXXXXXXXXXXXXXXXX.  ...  ...  XXXXXX.    ..XXXXXXXXXXXXXXXXXXXXXXXXXXXXXXXXXXXXXXXXX.....              ",
"                   .......X.XXXXXXXXXXXXXXX.....  ...XXXXXXX..    ...XXXXXXXXXXXXXXXXXXXXXXXXXXXXXXXXXXXXXXXX  ...              ",
"                     .XXXXXXXXXX X      X         .XXXXXXXXXX.     .XXXXXXXXXXXXXXXXXXXXXXXXXXXXXXXXXXXXXXX..  ...              ",
"                    ......XXXXXX.X......X......   ....XXX.X...    ......XXXXXXXXXXXXXXXXXXXXXXXXXXXXXXXXXXXXXX....              ",
"                      ..XXXXXXXXXXXXXXXXXXXX....  ..XXXXXXXX        . XXXXXXXXXXXXXXXXXXXXXXXXXXXXXXXXXXXXXXXX...               ",
"                  . .........XXXXXXXXX.X........  .....XXX...      .......X.XXXXXXXXXXXXXXXXXXX.X..X......X........             ",
"                      ...XXXXXXXXXXXXXXXXX......  ....XX X             .XXXXXXXXXXXXXXXXXXXXXXXXXXXXXXXXXXXXX..                 ",
"                    ...........................    ......... .     . ............................................               ",
"                                                                                                                                ",
"                                                                                                                                ",
"               ..................................................................    ....................... .                  ",
"                . ................................................................  ....XXXXXXXXXXXXXXXXX..                     ",
"            . .....XXXXXXXXXXXXXXXXXXXXXXXXXXXXXXXXXXXXXXXXXXXXXXXXXXXXXXXXXXXX...  ......X.XXXXXXXXX.X......                   ",
"               ....XXXXXXXXXXXXXXXXXXXXXXXXXXXoXoooooooooXXXXXXXXXXXXXXXXX.X......  ...XXXXXXXXXXXXXXXXXXX..                    ",
"              .......XXXXXXXXXXXXXXXXXXXXXXXXXoXoooooooooXXXXXXXXXXXXXXXXXXXXXX...  .....XXXXXXXXXXXXXXXXX...                   ",
"              ....XXXXXXXXXXXXXXXXXXXXXXXXXXXXXXXXXXXXoXXXXXXXXXXXXXXXXXXXXXXXX...         X  X XXXXXXX......                   ",
"              .......X..X.XXXXXXXXXXXXXXXXXXXXXXXXXXooooooXoXXXXXXXXXXXXXXXX......   ......X..X.XXXXXXXXXX...                   ",
"              ...  XXXXXXXXXXXXXXXXXXXXXXXXXXXXXXXXXXXXXXXXXXXXXXXXXXXXXXXXXX  ...  ...  XXXXXXXXXXXXXXX.....                   ",
"               ..  XXXXXXXXXXXXXXXXXXXXXXXXXXXXXXXXXXXXXXXXXXXXXXXXXXXXXXXX..  ...  ...  XXXXXXXXXXXXXXXX....                   ",
"              .......XXXXXXXXXXXXXXXXXXXXXXXXXXXXXXXXXXXXXXXXXXXXXXXXXXXXXXXXX...   .......XXXXXXXXXXX.......                   ",
"               ..X.XXXXXXXXXXXXXXXXXXXXXXXXXXXXXXXXXXXXXXXXXXXXXXXXXX X  X          ...X.XXXXXXXXXXXXXXX.X                      ",
"             ..........XXXXXXXXXXXXXXXXXXXXXXXXXXXXXXXXXXXXXXXXXXXXXX.X..X........  .........XXXXX.X........ .                  ",
"                  ...XXXXXXXXXXXXXXXXXXXXXXXXXXXXXXXXXXXXXXXXXXXXXXXXXXXXXX.X.....  .......XXXXXXXXXXX..                        ",
"               ..................................................................    .....................                      ",
"                                                                                                                                ",
"                                                                                                                                ",
"                  . ...........................    ..............................................................               ",
"                      .XXXXXXXXXXXXXXXXXXXXX....  ...XXXXXXXXXXXXXXXXXXXXXXXXXXXXXXXXXXXXXXXXXXXXXXXXXXXXXXXXX.                 ",
"                   .....XXXXXXXXXXXXXXXX.X......  ....X.XXXXXXXXXXXXXXXXXXXXXXXXXXXXXXXXXXXXXXXXXXXXXXXXXX.X.......             ",
"                    ..XXXXXXXXXXXXXXXXXXXXXXX...  ..XXXXXXXXXXXXXXXXooooooXoXXXXXXXXXXXXXXXXXXXXXXXXXXXXXXXXXXX..               ",
"                   ......XXXXXXXXXXXXX X          .....XXXXXXXXXXXXXXXXXoXXXXXXXXXXXXXXXXXXXXXXXXXXXXXXXXXXXXXX... .            ",
"                   ...XXXXXXXXXXXXXXXX.X.......   ...XXXXXXXXXXXXXXXoXoooooXXXXXXXXXXXXXXXXXXXXXXXXXXXXX.X.......               ",
"                   .X.XXXXXXXXXXXXXXXXXXXXXX.X..  ......XXXXXXXXXXXXoXoooooXXXXXXXXXXXXXXXXXXXXXXXXXXXXXXXXXX.....              ",
"                   .......X.XXXXXXXXXXXXXXX  ...  ...  XXXXXXXXXXXXXXXXXXXXXXXXXXXXXXXXXXXXXXXXXXXXXXXXXXXXXX  ...              ",
"                     .XXXXXXXXXXXXXXXXXXX..  ...  ...  XXXXXXXXXXXXXXXXXXXXXXXXXXXXXXXXXXXXXXXXXXXXXXXXXXXX..  ...              ",
"                   .......XXXXXXXXXXXXXXXXXX...   .......XXXXXXXXXXXXXXXXXXXXXXXXXXXXXXXXXXXXXXXXXXXXXXXXXXXXX....              ",
"                    . .XXXXXXXXX X      X         ....XXXXXXXXXXXXXXXXXXXXXXXXXXXXXXXXXXXXXXXXXXXXXXXXXXXXXXXX....              ",
"                  ...........XXX.X......X.......  ........X.XXXXXXXXXXXXXXXXXXXXXXXXXXXXXXXXXXXXXXXX.X....X........             ",
"                      .X.XXXXXXXXXXXXXXXXXX.....  ....X.XXXXXXXXXXXXXXXXXXXXXXXXXXXXXXXXXXXXXXXXXXXXXXXXXXXX .                  ",
"                    ...........................    ..............................................................               ",
"                                                                                                                                ",
"                                                                                                                                ",
"               ..................................................................    .......................                    ",
"                 .XXXXXXXXXXXXXXXXXXXXXXXXXXXXXXXXXXXXXXXXXXXXXXXXXXXXXXXXXXXX....  ....XXXXXXXXXXXXXXXXX..                     ",
"              ......X.XXXXXXXXXXXXXXXXXXXXXXXXXXXXXXXXXXXXXXXXXXXXXXXXXXXX.X......  ......X.XXXXXXXXX.X.......                  ",
"               ..XXXXXXXXXXXXXXXXXXXXXXXXXXXXXoXoooooooooXXXXXXXXXXXXXXXXXXXXXX...  ...XXXXXXXXXXXXXXXXXXX..                    ",
"              .....XXXXXXXXXXXXXXXXXXXXXXXXXXXoXoooooooooXXXXXXXXXXXXXXXXXXXX.....  .....XXXXXXXXXXXXXXXXX...                   ",
"              ....XXXXXXXXXXXXXXXXXXXXXXXXXXXXXXXXXXXXoXXXXXXXXXXXXXXXXXXXXXXXXX..         X  X XXXXXXX......                   ",
"              .......X..X.XXXXXXXXXXXXXXXXXXXXXXXXXXooooooXoXXXXXXXXXXXXXXXX......   ......X..X.XXXXXXXXXX...                   ",
"              ...  XXXXXXXXXXXXXXXXXXXXXXXXXXXXXXXXXXXXXXXXXXXXXXXXXXXXXXXXXX  ...  ...  XXXXXXXXXXXXXXX.....                   ",
"              ...  XXXXXXXXXXXXXXXXXXXXXXXXXXXXXXXXXXXXXXXXXXXXXXXXXXXXXXXX..  ...  ...  XXXXXXXXXXXXXXXX....                   ",
"              .......XXXXXXXXXXXXXXXXXXXXXXXXXXXXXXXXXXXXXXXXXXXXXXXXXXXXXXXXX...   .......XXXXXXXXXXX.......                   ",
"               ..X.XXXXXXXXXXXXXXXXXXXXXXXXXXXXXXXXXXXXXXXXXXXXXXXXXX X  X          ...X.XXXXXXXXXXXXXXX.X..                    ",
"            . .........XXXXXXXXXXXXXXXXXXXXXXXXXXXXXXXXXXXXXXXXXXXXXX.X..X........  .........XXXXX.X.........                   ",
"                  ...XXXXXXXXXXXXXXXXXXXXXXXXXXXXXXXXXXXXXXXXXXXXXXXXXXXXXX.X.....  .......XXXXXXXXXXX. .                       ",
"               ..................................................................    ....................... .                  ",
"                                                                                                                                ",
"                                                                                                                                ",
"                                                                                                                                ",
"                                                                                                                                ",
"                                                                                                                                ",
"                                                                                                                                "
};
