/* XPM */
static char * enemy_xpm[] = {
"128 128 14 1",
" 	c None",
".	c #91736D",
"+	c #56505B",
"@	c #815C5F",
"#	c #988177",
"$	c #323443",
"%	c #E39B89",
"&	c #FDCAAB",
"*	c #FFE3C6",
"=	c #A45B51",
"-	c #C58D71",
";	c #FFFFFF",
">	c #BD3B53",
",	c #E86363",
"..........................+.++.++++++.+++++++++@@@........................................+.++.++++++.+++++++++@@@............. ",
"..........................@.@@.@@@@@@.@@@@@@+++@@@@@@@@@.@................................@.@@.@@@@@@.@@@@@@+++@@@@@@@@@.@..... ",
".........................................@@@@++@@@@@@@...................................................@@@@++@@@@@@@......... ",
"...................................@.@@@@@@@@++@@@@@@@@@@@@@.......................................@.@@@@@@@@++@@@@@@@@@@@@@... ",
".......................................@@@@@@++@@@@@@@@@.@.............................................@@@@@@++@@@@@@@@@.@..... ",
"@@@@@@@@@@@@@@@@@@@@@@@@@@@@@@@@@@@@@@@@@@@@++++@@@@@@@@@@@@@@@@@@@@@@@@@@@@@@@@@@@@@@@@@@@@@@@@@@@@@@@@@@@@++++@@@@@@@@@@@@@@@ ",
"+++++++++++++++++++++++++++++++++++++++++++++++++++++++++++++++++++++++++++++++++++++++++++++++++++++++++++++++++++++++++++++++ ",
"+++++++++++++++++++++++++++++++++++++++++++++++++++++++++++++++++++++++++++++++++++++++++++++++++++++++++++++++++++++++++++++++ ",
"@@@@@@@@@@@@@@++++@@@@@@@@@@@@@@@@@@@@@@@@@@@@@@@@@@@@@@@@@@@@@@@@@@@@@@@@@@@@++++@@@@@@@@@@@@@@@@@@@@@@@@@@@@@@@@@@@@@@@@@@@@@ ",
"............@@@++@@@........................................................@@@++@@@........................................... ",
".......@.@@@@@@++@@@...................................................@.@@@@@@++@@@........................................... ",
".............@@++@@@@@@.@..................#.#########.......................@@++@@@@@@.@..................#.#########......... ",
".............@@++@@@@......................#.#########.......................@@++@@@@......................#.#########......... ",
"............@@@+++++++++.++.+......................#........................@@@+++++++++.++.+......................#........... ",
".............@@+++@@@@@@.@@.@....................######.#....................@@+++@@@@@@.@@.@....................######.#...... ",
"..........++@@@++@@@++....................................................++@@@++@@@++......................................... ",
"........@@++@@@++@@@++..................................................@@++@@@++@@@++......................................... ",
"............@@+++@@@@@@@....................................................@@+++@@@@@@@....................................... ",
"..+.++.++++++++++@@@.@............................................+.++.++++++++++@@@.@......................................... ",
"..@.@@.@@@@@@@@++@@@@@@@@@........................................@.@@.@@@@@@@@++@@@@@@@@@..................................... ",
"........@.@@@@@++@@@@@@@................................................@.@@@@@++@@@@@@@....................................... ",
"@@@@@@@@@@@@@@++++@@@@@@@@@@@@@@@@@@@@@@@@@@@@@@@@@@@@@@@@@@@@@@@@@@@@@@@@@@@@++++@@@@@@@@@@@@@@@@@@@@@@@@@@@@@@@@@@@@@@@@@@@@@ ",
"+++++++++++++++++++++++++++++++++++++++++++++++++++++++++++++++++++++++++++++++++++++++++++++++++++++++++++++++++++++++++++++++ ",
"+++++++++++++++++++++++++++++++++++++++++++++++++++++++++++++++++++++++++++++++++++++++++++++++++++++++++++++++++++++++++++++++ ",
"@@@@@@@@@@@@@@@@@@@@@@@@@@@@@@@@@@@@@@@@@@@@++++@@@@@@@@@@@@@@@@@@@@@@@@@@@@@@@@@@@@@@@@@@@@@@@@@@@@@@@@@@@@++++@@@@@@@@@@@@@@@ ",
".........................................@@@@++@@@.......................................................@@@@++@@@............. ",
".....................................@.@@@@@@++@@@@.@................................................@.@@@@@@++@@@@.@.......... ",
".######.#.................................@@@++@@................######.#.................................@@@++@@.............. ",
".....#.............................+.++++++++++@@@@@.................#.............................+.++++++++++@@@@@........... ",
".#.#####...........................@.@@@@@@@+++@@@...............#.#####...........................@.@@@@@@@+++@@@............. ",
".#.#####.................................@.@@++@@@@@@............#.#####.................................@.@@++@@@@@@.......... ",
"........................................++@@@++@@@++....................................................++@@@++@@@++........... ",
"......................................@@++@@@++@@@++..................................................@@++@@@++@@@++........... ",
".........................................@@@@++@@@@@@@...................................................@@@@++@@@@@@@......... ",
"..........................+.++.++++++.+++++++++@@@@.......................................+.++.++++++.+++++++++@@@@............ ",
"..........................@.@@.@@@@@@.@@@@@@@++@@@@@@@@.@.................................@.@@.@@@@@@.@@@@@@@++@@@@@@@@.@...... ",
"........................................@@@@@++@@@@.@...................................................@@@@@++@@@@.@.......... ",
"@@@@@@@@@@@@@@@@@@@@@@@@@@@@@@@@@@@@@@@@@@@@++++@@@@@@@@@@@@@@@@@@@@@@@@@@@@@@@@@@@@@@@@@@@@@@@@@@@@@@@@@@@@++++@@@@@@@@@@@@@@@ ",
"+++++++++++++++++++++++++++++++++++++++++++++++++++++$$$$$$$$$$$$$$$$$$$$++++++++++++++++++++++++++++++++++++++++++++++++++++++ ",
"+++++++++++++++++++++++++++++++++++++++++++++++++++$$%%%%%$&&&&&&&&&&&&&&$$++++++++++++++++++++++++++++++++++++++++++++++++++++ ",
"@@@@@@@@@@@@@@++++@@@@@@@@@@@@@@@@@@@@@@@@@@@@@@@@$$%&&&&&%$&&&*&*******&&$$@@++++@@@@@@@@@@@@@@@@@@@@@@@@@@@@@@@@@@@@@@@@@@@@@ ",
"...........@@@@++@@...............................$$%%&&&&%$&&&*&*******&&$$@@@++@@............................................ ",
"......@.@@@@@@@++@@@@@@@.@.......................$$%&&&&&&%$&&&&&&&&&&*&&&&$$@@++@@@@@@@.@..................................... ",
"............@@@++@@@@......................#.####$$%&&&&&&%$&&&&&*&******&&$$@@++@@@@......................#.#########......... ",
".........@@@@@@++@@@@@@....................#.####$$%&&&&&&%$&&&&&&&&&&&&&&&$$@@++@@@@@@....................#.#########......... ",
".............@@+++++++++.++.+....................$$%&&&&&&%$&&&&&&&&&&&&&&&$$@@+++++++++.++.+......................#........... ",
"..........@@@@@+++@@@@@@.@@.@....................$$%&&&&&&%$&&&&&&&&&&&&&&&$$@@+++@@@@@@.@@.@....................######.#...... ",
"..........++@@@++@@@++...........................$$%&&&&&&%$&&&&&&&&&&&&&&&$$@@++@@@++......................................... ",
"........@@++@@@++@@@++...........................$$%%%&&&&%$&&&&%%%&%&&&&&&$$@@++@@@++......................................... ",
"............@@+++@@@@@@.@........................$$%&&&&&&%$&&&&&&&&&&&&&&&$$@+++@@@@@@.@...................................... ",
"..+.++.++++++++++@@@@............................$$%%%%%%&%$&&&%%%%%%&%&&&&$$++++@@@@.......................................... ",
"..@.@@.@@@@@@@@++@@@@@@@@@.......................$$%%&%&&&%$&&&%%%%%%&%&&&&$$@@++@@@@@@@@@..................................... ",
"..........@@@@@++@@@@@@.@........................$$%%%%%%%%$&&&&&&&&&&&&&&%$$@@++@@@@@@.@...................................... ",
"@@@@@@@@@@@@@@++++@@@@@@@@@@@@@@@@@@@@@@@@@@@@@@$$$$%%%%$$$$$$$&&&&&&&&&&&&$$@++++@@@@@@@@@@@@@@@@@@@@@@@@@@@@@@@@@@@@@@@@@@@@@ ",
"+++++++++++++++++++++++++++++++++++++++++++++++$$&&&$$$$$$$$$$$%%&&&&&&&%%%$$++++++++++++++++++++++++++++++++++++++++++++++++++ ",
"+++++++++++++++++++++++++++++++++++++++++++++++$$&$%%%%%$$$$$$$%&&&&&$$$$$%$$++++++++++++++++++++++++++++++++++++++++++++++++++ ",
"@@@@@@@@@@@@@@@@@@@@@@@@@@@@@@@@@@@@@@@@@@@@+++$$&$$%%%%$$$$$$$%%$%$%%%$$%%$$@@@@@@@@@@@@@@@@@@@@@@@@@@@@@@@++++@@@@@@@@@@@@@@@ ",
"..........................................@@@++$$%%%%%%%$$$$$$$%%%%%%%%%%%%$$.............................@@@++@@@............. ",
".#######................................@@@@@++@$$$$$$$$$$$$$$$$$$$$$$$$$$$$$...........................@@@@@++@@@@@@.@........ ",
"....##.............................+.++++++++++@$$$$$$$$$$$$$$$$$$$$$$$$$$$$$......................+.++++++++++@@@@............ ",
"...#####.#.........................@.@@@@@@@@++$$===------------------------$$.....................@.@@@@@@@@++@@@@@@.......... ",
"...#####.#..............................++@@@++$$====----------$$$$$$-------=$$.........................++@@@++@@@++........... ",
".......................................@++@@@++$$==-----------$;$;;;;$------=$$........................@++@@@++@@@++........... ",
"........................................@@@@@++$$===----------$$$$$$$$------=$$.........................@@@@@++@@@@@@.......... ",
"..........................+.++.++++++.+++++++++$$==-----------$$$$$$$$------==$$..........+.++.++++++.+++++++++@@@............. ",
"..........................@.@@.@@@@@@.@@@@@@+++$$====---------$$$$;;$$-----==$$...........@.@@.@@@@@@.@@@@@@+++@@@@@@@@@.@..... ",
".........................................@@@$$$$$=------------$$$$$$$$------==$$.........................@@@@++@@@@@@@......... ",
"...................................@.@@@@@@@$$$$$=======-=----========---====$$@...................@.@@@@@@@@++@@@@@@@@@@@@@... ",
".......................................@@@$$>>>>$====----------------------==$$........................@@@@@@++@@@@@@@@@.@..... ",
"@@@@@@@@@@@@@@@@@@@@@@@@@@@@@@@@@@@@@@@@@@$$,,,>>$$==========================$$@@@@@@@@@@@@@@@@@@@@@@@@@@@@@++++@@@@@@@@@@@@@@@ ",
"+++++++++++++++++++++++++++++++++++++++++$$,,,,>>$$=========================$$+++++++++++++++++++++++++++++++++++++++++++++++++ ",
"+++++++++++++++++++++++++++++++++++++++++$$,,,,>>>>$$$$$$$$$$$$$$$$$$$$$$$$$$++++++++++++++++++++++++++++++++++++++++++++++++++ ",
"@@@@@@@@@@@@@@++++@@@@@@@@@@@@@@@@@@@@@@@$$,,,,,,>>$$$$$$$$$$$$$$$$$$$$$$$$$$@++++@@@@@@@@@@@@@@@@@@@@@@@@@@@@@@@@@@@@@@@@@@@@@ ",
"............@@@++@@@.....................$$,,>>$$>>>>>>>>>>>>$$$$$$$$>>$$>>$$@@++@@@........................................... ",
".......@.@@@@@@++@@@.....................$$,,,>$$>,,,,,,,,,>>$$$$$$$$>>$$>,$$@@++@@@........................................... ",
".............@@++@@@@@@.@................$$,,,>$$>,,,,,,>,>>>>>$$$$>>>>$$>,$$@@++@@@@@@.@..................#.#########......... ",
".............@@++@@@@....................$$$$$$$$>>>>>,,,,,,,$>$$$$>$>>$$,,$$@@++@@@@......................#.#########......... ",
"............@@@+++++++++.++.+............$$$$$$$$>,>,,,,,,,,,,,,,,,,,,>$$>,$$@@+++++++++.++.+......................#........... ",
".............@@+++@@@@@@.@@.@............$$%%%%$$>>>>>>>>>>>>>>>>>>>>>>$$>,$$@@+++@@@@@@.@@.@....................######.#...... ",
"..........++@@@++@@@++...................$$&&&&$$$>$$$$$$$$$$$$$$$$$$$$$$$$$$@@++@@@++......................................... ",
"........@@++@@@++@@@++.....................$$$$$$>>>>>$>$$$$$$$$$$$$>>>$$$$$$@@++@@@++......................................... ",
"............@@+++@@@@@@@...................$$$$$$$$$$$$$$$$$$$$$$$$$$$$$$%%$$@+++@@@@@@@....................................... ",
"..+.++.++++++++++@@@.@.........................$$>>$$$$$$$$$$$$$$$$$$$>$$&&$$++++@@@.@......................................... ",
"..@.@@.@@@@@@@@++@@@@@@@@@.................$$$$$$$$$$$$$$$$$$$$$$$$$$$$$$$$@@@@++@@@@@@@@@..................................... ",
"........@.@@@@@++@@@@@@@...................$$$$$$$$$$$$$$$$$$$$$$$$$$$$$$$$@@@@++@@@@@@@....................................... ",
"@@@@@@@@@@@@@@++++@@@@@@@@@@@@@@@@@@@@@@@@@$$--------------$$$$$$$$$$$$$$@@@@@++++@@@@@@@@@@@@@@@@@@@@@@@@@@@@@@@@@@@@@@@@@@@@@ ",
"+++++++++++++++++++++++++++++++++++++++++++$$===---=-======$$$$$$$$$$$$$$++++++++++++++++++++++++++++++++++++++++++++++++++++++ ",
"+++++++++++++++++++++++++++++++++++++++++++$$==--------=-==$$$$$$$$$$$$$$++++++++++++++++++++++++++++++++++++++++++++++++++++++ ",
"@@@@@@@@@@@@@@@@@@@@@@@@@@@@@@@@@@@@@@@@@@@$$==============$$$$$$$$$$$$$$@@@@@@@@@@@@@@@@@@@@@@@@@@@@@@@@@@@++++@@@@@@@@@@@@@@@ ",
".........................................@@@@$$$$$$$$$$$$$$$$$$$$$$$$$$$$................................@@@@++@@@............. ",
".....................................@.@@@@@@$$$$$$$$$$$$$$$$$$$$$$$$$$$$............................@.@@@@@@++@@@@.@.......... ",
".######.#.................................@@@++@@$$==$$..........$$$$$$$$.................................@@@++@@.............. ",
".....#.............................+.++++++++++@@$$==$$..........$$$$$$$$..........................+.++++++++++@@@@@........... ",
".#.#####...........................@.@@@@@@@+++@@$$--$$..........$$$$$$$$..........................@.@@@@@@@+++@@@............. ",
".#.#####.................................@.@@++@@$$--$$..........$$$$$$#.................................@.@@++@@@@@@.......... ",
"........................................++@@@++@@$$$$............$$$$$$.................................++@@@++@@@++........... ",
"......................................@@++@@@++@@$$$$............$$$$.................................@@++@@@++@@@++........... ",
".........................................@@@@++@@@@@@@...................................................@@@@++@@@@@@@......... ",
"..........................+.++.++++++.+++++++++@@@@.......................................+.++.++++++.+++++++++@@@@............ ",
"..........................@.@@.@@@@@@.@@@@@@@++@@@@@@@@.@.................................@.@@.@@@@@@.@@@@@@@++@@@@@@@@.@...... ",
"........................................@@@@@++@@@@.@...................................................@@@@@++@@@@.@.......... ",
"@@@@@@@@@@@@@@@@@@@@@@@@@@@@@@@@@@@@@@@@@@@@++++@@@@@@@@@@@@@@@@@@@@@@@@@@@@@@@@@@@@@@@@@@@@@@@@@@@@@@@@@@@@++++@@@@@@@@@@@@@@@ ",
"+++++++++++++++++++++++++++++++++++++++++++++++++++++++++++++++++++++++++++++++++++++++++++++++++++++++++++++++++++++++++++++++ ",
"+++++++++++++++++++++++++++++++++++++++++++++++++++++++++++++++++++++++++++++++++++++++++++++++++++++++++++++++++++++++++++++++ ",
"@@@@@@@@@@@@@@++++@@@@@@@@@@@@@@@@@@@@@@@@@@@@@@@@@@@@@@@@@@@@@@@@@@@@@@@@@@@@++++@@@@@@@@@@@@@@@@@@@@@@@@@@@@@@@@@@@@@@@@@@@@@ ",
"...........@@@@++@@........................................................@@@@++@@............................................ ",
"......@.@@@@@@@++@@@@@@@.@............................................@.@@@@@@@++@@@@@@@.@..................................... ",
"............@@@++@@@@......................#.#########......................@@@++@@@@......................#.#########......... ",
".........@@@@@@++@@@@@@....................#.#########...................@@@@@@++@@@@@@....................#.#########......... ",
".............@@+++++++++.++.+......................#.........................@@+++++++++.++.+......................#........... ",
"..........@@@@@+++@@@@@@.@@.@....................######.#.................@@@@@+++@@@@@@.@@.@....................######.#...... ",
"..........++@@@++@@@++....................................................++@@@++@@@++......................................... ",
"........@@++@@@++@@@++..................................................@@++@@@++@@@++......................................... ",
"............@@+++@@@@@@.@...................................................@@+++@@@@@@.@...................................... ",
"..+.++.++++++++++@@@@.............................................+.++.++++++++++@@@@.......................................... ",
"..@.@@.@@@@@@@@++@@@@@@@@@........................................@.@@.@@@@@@@@++@@@@@@@@@..................................... ",
"..........@@@@@++@@@@@@.@.................................................@@@@@++@@@@@@.@...................................... ",
"@@@@@@@@@@@@@@++++@@@@@@@@@@@@@@@@@@@@@@@@@@@@@@@@@@@@@@@@@@@@@@@@@@@@@@@@@@@@++++@@@@@@@@@@@@@@@@@@@@@@@@@@@@@@@@@@@@@@@@@@@@@ ",
"+++++++++++++++++++++++++++++++++++++++++++++++++++++++++++++++++++++++++++++++++++++++++++++++++++++++++++++++++++++++++++++++ ",
"+++++++++++++++++++++++++++++++++++++++++++++++++++++++++++++++++++++++++++++++++++++++++++++++++++++++++++++++++++++++++++++++ ",
"@@@@@@@@@@@@@@@@@@@@@@@@@@@@@@@@@@@@@@@@@@@@++++@@@@@@@@@@@@@@@@@@@@@@@@@@@@@@@@@@@@@@@@@@@@@@@@@@@@@@@@@@@@++++@@@@@@@@@@@@@@@ ",
"..........................................@@@++@@@........................................................@@@++@@@............. ",
".#######................................@@@@@++@@@@@@.@..........#######................................@@@@@++@@@@@@.@........ ",
"....##.............................+.++++++++++@@@@.................##.............................+.++++++++++@@@@............ ",
"...#####.#.........................@.@@@@@@@@++@@@@@@..............#####.#.........................@.@@@@@@@@++@@@@@@.......... ",
"...#####.#..............................++@@@++@@@++...............#####.#..............................++@@@++@@@++........... ",
".......................................@++@@@++@@@++...................................................@++@@@++@@@++........... ",
"                                                                                                                                "};
