/* XPM */
static char *floor[] = {
/* columns rows colors chars-per-pixel */
"127 127 4 1 ",
"  c #56505B",
". c #815C5F",
"X c #91736D",
"o c #988177",
/* pixels */
"XXXXXXXXXXXXXXXXXXXXXXXXXX X  X      X         ...XXXXXXXXXXXXXXXXXXXXXXXXXXXXXXXXXXXXXXXX X  X      X         ...XXXXXXXXXXXXX",
"XXXXXXXXXXXXXXXXXXXXXXXXXX.X..X......X......   .........X.XXXXXXXXXXXXXXXXXXXXXXXXXXXXXXXX.X..X......X......   .........X.XXXXX",
"XXXXXXXXXXXXXXXXXXXXXXXXXXXXXXXXXXXXXXXXX....  .......XXXXXXXXXXXXXXXXXXXXXXXXXXXXXXXXXXXXXXXXXXXXXXXXXXX....  .......XXXXXXXXX",
"XXXXXXXXXXXXXXXXXXXXXXXXXXXXXXXXXXX.X........  .............XXXXXXXXXXXXXXXXXXXXXXXXXXXXXXXXXXXXXXX.X........  .............XXX",
"XXXXXXXXXXXXXXXXXXXXXXXXXXXXXXXXXXXXXXX......  .........X.XXXXXXXXXXXXXXXXXXXXXXXXXXXXXXXXXXXXXXXXXXXXX......  .........X.XXXXX",
"............................................    ............................................................    ...............",
"                                                                                                                               ",
"                                                                                                                               ",
"..............    ............................................................    .............................................",
"XXXXXXXXXXXX...  ...XXXXXXXXXXXXXXXXXXXXXXXXXXXXXXXXXXXXXXXXXXXXXXXXXXXXXXXX...  ...XXXXXXXXXXXXXXXXXXXXXXXXXXXXXXXXXXXXXXXXXXX",
"XXXXXXX.X......  ...XXXXXXXXXXXXXXXXXXXXXXXXXXXXXXXXXXXXXXXXXXXXXXXXXXX.X......  ...XXXXXXXXXXXXXXXXXXXXXXXXXXXXXXXXXXXXXXXXXXX",
"XXXXXXXXXXXXX..  ......X.XXXXXXXXXXXXXXXXXXoXoooooooooXXXXXXXXXXXXXXXXXXXXXXX..  ......X.XXXXXXXXXXXXXXXXXXoXoooooooooXXXXXXXXX",
"XXXXXXXXXXXXX..  ....XXXXXXXXXXXXXXXXXXXXXXoXoooooooooXXXXXXXXXXXXXXXXXXXXXXX..  ....XXXXXXXXXXXXXXXXXXXXXXoXoooooooooXXXXXXXXX",
"XXXXXXXXXXXX...         X  X XXXXXXXXXXXXXXXXXXXXXXoXXXXXXXXXXXXXXXXXXXXXXXX...         X  X XXXXXXXXXXXXXXXXXXXXXXoXXXXXXXXXXX",
"XXXXXXXXXXXXX..   ......X..X.XXXXXXXXXXXXXXXXXXXXooooooXoXXXXXXXXXXXXXXXXXXXX..   ......X..X.XXXXXXXXXXXXXXXXXXXXooooooXoXXXXXX",
"XXXXXXXXXX  ...  ...  XXXXXXXXXXXXXXXXXXXXXXXXXXXXXXXXXXXXXXXXXXXXXXXXXXXX  ...  ...  XXXXXXXXXXXXXXXXXXXXXXXXXXXXXXXXXXXXXXXXX",
"XXXXXXXX..  ...  ...  XXXXXXXXXXXXXXXXXXXXXXXXXXXXXXXXXXXXXXXXXXXXXXXXXX..  ...  ...  XXXXXXXXXXXXXXXXXXXXXXXXXXXXXXXXXXXXXXXXX",
"XXXXXXXXXXXX..   .......XXXXXXXXXXXXXXXXXXXXXXXXXXXXXXXXXXXXXXXXXXXXXXXXXXXX..   .......XXXXXXXXXXXXXXXXXXXXXXXXXXXXXXXXXXXXXXX",
"XX X  X          ...X.XXXXXXXXXXXXXXXXXXXXXXXXXXXXXXXXXXXXXXXXXXXX X  X          ...X.XXXXXXXXXXXXXXXXXXXXXXXXXXXXXXXXXXXXXXXXX",
"XX.X..X........  .........XXXXXXXXXXXXXXXXXXXXXXXXXXXXXXXXXXXXXXXX.X..X........  .........XXXXXXXXXXXXXXXXXXXXXXXXXXXXXXXXXXXXX",
"XXXXXXXX.X.....  .......XXXXXXXXXXXXXXXXXXXXXXXXXXXXXXXXXXXXXXXXXXXXXXXX.X.....  .......XXXXXXXXXXXXXXXXXXXXXXXXXXXXXXXXXXXXXXX",
"..............    ............................................................    .............................................",
"                                                                                                                               ",
"                                                                                                                               ",
"............................................    ............................................................    ...............",
"XXXXXXXXXXXXXXXXXXXXXXXXXXXXXXXXXXXXXXXXX....  ...XXXXXXXXXXXXXXXXXXXXXXXXXXXXXXXXXXXXXXXXXXXXXXXXXXXXXXX....  ...XXXXXXXXXXXXX",
"XXXXXXXXXXXXXXXXXXXXXXXXXXXXXXXXXXXXX.X......  ....X.XXXXXXXXXXXXXXXXXXXXXXXXXXXXXXXXXXXXXXXXXXXXXXXX.X......  ....X.XXXXXXXXXX",
"XooooooXoXXXXXXXXXXXXXXXXXXXXXXXXXXXXXXXXX...  ..XXXXXXXXXXXXXXXXooooooXoXXXXXXXXXXXXXXXXXXXXXXXXXXXXXXXXX...  ..XXXXXXXXXXXXXX",
"XXXXXoXXXXXXXXXXXXXXXXXXXXXXXXXXXXX X          .....XXXXXXXXXXXXXXXXXoXXXXXXXXXXXXXXXXXXXXXXXXXXXXX X          .....XXXXXXXXXXX",
"XoXoooooXXXXXXXXXXXXXXXXXXXXXXXXXXX.X.......   ...XXXXXXXXXXXXXXXoXoooooXXXXXXXXXXXXXXXXXXXXXXXXXXX.X.......   ...XXXXXXXXXXXXX",
"XoXoooooXXXXXXXXXXXXXXXXXXXXXXXXXXXXXXXXX.X..  ......XXXXXXXXXXXXoXoooooXXXXXXXXXXXXXXXXXXXXXXXXXXXXXXXXX.X..  ......XXXXXXXXXX",
"XXXXXXXXXXXXXXXXXXXXXXXXXXXXXXXXXXXXXXXX  ...  ...  XXXXXXXXXXXXXXXXXXXXXXXXXXXXXXXXXXXXXXXXXXXXXXXXXXXX  ...  ...  XXXXXXXXXXX",
"XXXXXXXXXXXXXXXXXXXXXXXXXXXXXXXXXXXXXX..  ...  ...  XXXXXXXXXXXXXXXXXXXXXXXXXXXXXXXXXXXXXXXXXXXXXXXXXX..  ...  ...  XXXXXXXXXXX",
"XXXXXXXXXXXXXXXXXXXXXXXXXXXXXXXXXXXXXXXXX....  .......XXXXXXXXXXXXXXXXXXXXXXXXXXXXXXXXXXXXXXXXXXXXXXXXXXX....  .......XXXXXXXXX",
"XXXXXXXXXXXXXXXXXXXXXXXXXX X  X      X         ....XXXXXXXXXXXXXXXXXXXXXXXXXXXXXXXXXXXXXXX X  X      X         ....XXXXXXXXXXXX",
"XXXXXXXXXXXXXXXXXXXXXXXXXX.X..X......X.......  ........X.XXXXXXXXXXXXXXXXXXXXXXXXXXXXXXXXX.X..X......X.......  ........X.XXXXXX",
"XXXXXXXXXXXXXXXXXXXXXXXXXXXXXXXXXXXXXXXX.....  ....X.XXXXXXXXXXXXXXXXXXXXXXXXXXXXXXXXXXXXXXXXXXXXXXXXXXX.....  ....X.XXXXXXXXXX",
"............................................    ............................................................    ...............",
"                                                                                                                               ",
"                                                                                                                               ",
"..............    ............................................................    .............................................",
"XXXXXXXXXXX....  ..XXXXXXXXXXXXXXXXXXXXXXXXXXXXXXXXXXXXXXXXXXXXXXXXXXXXXXXX....  ..XXXXXXXXXXXXXXXXXXXXXXXXXXXXXXXXXXXXXXXXXXXX",
"XXXXXX.X.......  .......X.XXXXXXXXXXXXXXXXXXXXXXXXXXXXXXXXXXXXXXXXXXXX.X.......  .......X.XXXXXXXXXXXXXXXXXXXXXXXXXXXXXXXXXXXXX",
"XXXXXXXXXXXX...  ....XXXXXXXXXXXXXXXXXXXXXXoXoooooooooXXXXXXXXXXXXXXXXXXXXXX...  ....XXXXXXXXXXXXXXXXXXXXXXoXoooooooooXXXXXXXXX",
"XXXXXXXXX......  ......XXXXXXXXXXXXXXXXXXXXoXoooooooooXXXXXXXXXXXXXXXXXXX......  ......XXXXXXXXXXXXXXXXXXXXoXoooooooooXXXXXXXXX",
"XXXXXXXXXXXXX..         X  X XXXXXXXXXXXXXXXXXXXXXXoXXXXXXXXXXXXXXXXXXXXXXXXX..         X  X XXXXXXXXXXXXXXXXXXXXXXoXXXXXXXXXXX",
"XXXXXXXXXX.....   ......X..X.XXXXXXXXXXXXXXXXXXXXooooooXoXXXXXXXXXXXXXXXXX.....   ......X..X.XXXXXXXXXXXXXXXXXXXXooooooXoXXXXXX",
"XXXXXXXXXX  ...  ...  XXXXXXXXXXXXXXXXXXXXXXXXXXXXXXXXXXXXXXXXXXXXXXXXXXXX  ...  ...  XXXXXXXXXXXXXXXXXXXXXXXXXXXXXXXXXXXXXXXXX",
"XXXXXXXX..  ...  ...  XXXXXXXXXXXXXXXXXXXXXXXXXXXXXXXXXXXXXXXXXXXXXXXXXX..  ...  ...  XXXXXXXXXXXXXXXXXXXXXXXXXXXXXXXXXXXXXXXXX",
"XXXXXXXXXXXX..   ......X.XXXXXXXXXXXXXXXXXXXXXXXXXXXXXXXXXXXXXXXXXXXXXXXXXXX..   ......X.XXXXXXXXXXXXXXXXXXXXXXXXXXXXXXXXXXXXXX",
"XX X  X          ....XXXXXXXXXXXXXXXXXXXXXXXXXXXXXXXXXXXXXXXXXXXXX X  X          ....XXXXXXXXXXXXXXXXXXXXXXXXXXXXXXXXXXXXXXXXXX",
"XX.X..X........  .........XXXXXXXXXXXXXXXXXXXXXXXXXXXXXXXXXXXXXXXX.X..X........  .........XXXXXXXXXXXXXXXXXXXXXXXXXXXXXXXXXXXXX",
"XXXXXXXXXX.....  ......X.XXXXXXXXXXXXXXXXXXXXXXXXXXXXXXXXXXXXXXXXXXXXXXXXX.....  ......X.XXXXXXXXXXXXXXXXXXXXXXXXXXXXXXXXXXXXXX",
"..............    ............................................................    .............................................",
"                                                                                                                               ",
"                                                                                                                               ",
"............................................    ............................................................    ...............",
"XXXXXXXXXXXXXXXXXXXXXXXXXXXXXXXXXXXXXXXXXX...  ...........................X.XXXXXXXXXXXXXXXXXXXXXXXXXXXXXX...  ...XXXXXXXXXXXXX",
"XoooooooXXXXXXXXXXXXXXXXXXXXXXXXXXXXXXXX.....  ..............................XXXXXXXXXXXXXXXXXXXXXXXXXXX.....  ......X.XXXXXXXX",
"XXXXooXXXXXXXXXXXXXXXXXXXXXXXXXXXXX X          ............................XXXXXXXXXXXXXXXXXXXXXXXX X          ....XXXXXXXXXXXX",
"XXXoooooXoXXXXXXXXXXXXXXXXXXXXXXXXX.X........  ........                   .XXXXXXXXXXXXXXXXXXXXXXXX.X........  ......XXXXXXXXXX",
"XXXoooooXoXXXXXXXXXXXXXXXXXXXXXXXXXXXXXX  ...  ...  ....... .           ...XXXXXXXXXXXXXXXXXXXXXXXXXXXXX  ...  ...  XXXXXXXXXXX",
"XXXXXXXXXXXXXXXXXXXXXXXXXXXXXXXXXXXXXXX.  ...  ...  ....                 ..XXXXXXXXXXXXXXXXXXXXXXXXXXXX.  ...  ...  XXXXXXXXXXX",
"XXXXXXXXXXXXXXXXXXXXXXXXXXXXXXXXXXXXXXXX.....  .........                 ....XXXXXXXXXXXXXXXXXXXXXXXXXXX.....  ......XXXXXXXXXX",
"XXXXXXXXXXXXXXXXXXXXXXXXXX X  X      X         ........... .           ......XXXXXXXXXXXXX X  X      X         ...XXXXXXXXXXXXX",
"XXXXXXXXXXXXXXXXXXXXXXXXXX.X..X......X......   ........                   ....XXXXXXXXXXXX.X..X......X......   .........X.XXXXX",
"XXXXXXXXXXXXXXXXXXXXXXXXXXXXXXXXXXXXXXXXX....  ..............................XXXXXXXXXXXXXXXXXXXXXXXXXXXX....  .......XXXXXXXXX",
"XXXXXXXXXXXXXXXXXXXXXXXXXXXXXXXXXXX.X........  .................................XXXXXXXXXXXXXXXXXXX.X........  .............XXX",
"XXXXXXXXXXXXXXXXXXXXXXXXXXXXXXXXXXXXXXX......  .............................X.XXXXXXXXXXXXXXXXXXXXXXXXX......  .........X.XXXXX",
"............................................    ............................................................    ...............",
"                                                                                                                               ",
"                                                                                                                               ",
"..............    ............................................................    .............................................",
"XXXXXXXXXXXX...  ...XXXXXXXXXXXXXXXXXXXXXXXXXXXXXXXXXXXXXXXXXXXXXXXXXXXXXXXX...  ...XXXXXXXXXXXXXXXXXXXXXXXXXXXXXXXXXXXXXXXXXXX",
"XXXXXXX.X......  ...XXXXXXXXXXXXXXXXXXXXXXXXXXXXXXXXXXXXXXXXXXXXXXXXXXX.X......  ...XXXXXXXXXXXXXXXXXXXXXXXXXXXXXXXXXXXXXXXXXXX",
"XXXXXXXXXXXXX..  ......X.XXXXXXXXXXXXXXXXXXoXoooooooooXXXXXXXXXXXXXXXXXXXXXXX..  ......X.XXXXXXXXXXXXXXXXXXoXoooooooooXXXXXXXXX",
"XXXXXXXXXXXXX..  ....XXXXXXXXXXXXXXXXXXXXXXoXoooooooooXXXXXXXXXXXXXXXXXXXXXXX..  ....XXXXXXXXXXXXXXXXXXXXXXoXoooooooooXXXXXXXXX",
"XXXXXXXXXXXX...         X  X XXXXXXXXXXXXXXXXXXXXXXoXXXXXXXXXXXXXXXXXXXXXXXX...         X  X XXXXXXXXXXXXXXXXXXXXXXoXXXXXXXXXXX",
"XXXXXXXXXXXXX..   ......X..X.XXXXXXXXXXXXXXXXXXXXooooooXoXXXXXXXXXXXXXXXXXXXX..   ......X..X.XXXXXXXXXXXXXXXXXXXXooooooXoXXXXXX",
"XXXXXXXXXX  ...  ...  XXXXXXXXXXXXXXXXXXXXXXXXXXXXXXXXXXXXXXXXXXXXXXXXXXXX  ...  ...  XXXXXXXXXXXXXXXXXXXXXXXXXXXXXXXXXXXXXXXXX",
"XXXXXXXX..  ...  ...  XXXXXXXXXXXXXXXXXXXXXXXXXXXXXXXXXXXXXXXXXXXXXXXXXX..  ...  ...  XXXXXXXXXXXXXXXXXXXXXXXXXXXXXXXXXXXXXXXXX",
"XXXXXXXXXXXX..   .......XXXXXXXXXXXXXXXXXXXXXXXXXXXXXXXXXXXXXXXXXXXXXXXXXXXX..   .......XXXXXXXXXXXXXXXXXXXXXXXXXXXXXXXXXXXXXXX",
"XX X  X          ...X.XXXXXXXXXXXXXXXXXXXXXXXXXXXXXXXXXXXXXXXXXXXX X  X          ...X.XXXXXXXXXXXXXXXXXXXXXXXXXXXXXXXXXXXXXXXXX",
"XX.X..X........  .........XXXXXXXXXXXXXXXXXXXXXXXXXXXXXXXXXXXXXXXX.X..X........  .........XXXXXXXXXXXXXXXXXXXXXXXXXXXXXXXXXXXXX",
"XXXXXXXX.X.....  .......XXXXXXXXXXXXXXXXXXXXXXXXXXXXXXXXXXXXXXXXXXXXXXXX.X.....  .......XXXXXXXXXXXXXXXXXXXXXXXXXXXXXXXXXXXXXXX",
"..............    ............................................................    .............................................",
"                                                                                                                               ",
"                                                                                                                               ",
"............................................    ............................................................    ...............",
"XXXXXXXXXXXXXXXXXXXXXXXXXXXXXXXXXXXXXXXXX....  ...XXXXXXXXXXXXXXXXXXXXXXXXXXXXXXXXXXXXXXXXXXXXXXXXXXXXXXX....  ...XXXXXXXXXXXXX",
"XXXXXXXXXXXXXXXXXXXXXXXXXXXXXXXXXXXXX.X......  ....X.XXXXXXXXXXXXXXXXXXXXXXXXXXXXXXXXXXXXXXXXXXXXXXXX.X......  ....X.XXXXXXXXXX",
"XooooooXoXXXXXXXXXXXXXXXXXXXXXXXXXXXXXXXXX...  ..XXXXXXXXXXXXXXXXooooooXoXXXXXXXXXXXXXXXXXXXXXXXXXXXXXXXXX...  ..XXXXXXXXXXXXXX",
"XXXXXoXXXXXXXXXXXXXXXXXXXXXXXXXXXXX X          .....XXXXXXXXXXXXXXXXXoXXXXXXXXXXXXXXXXXXXXXXXXXXXXX X          .....XXXXXXXXXXX",
"XoXoooooXXXXXXXXXXXXXXXXXXXXXXXXXXX.X.......   ...XXXXXXXXXXXXXXXoXoooooXXXXXXXXXXXXXXXXXXXXXXXXXXX.X.......   ...XXXXXXXXXXXXX",
"XoXoooooXXXXXXXXXXXXXXXXXXXXXXXXXXXXXXXXX.X..  ......XXXXXXXXXXXXoXoooooXXXXXXXXXXXXXXXXXXXXXXXXXXXXXXXXX.X..  ......XXXXXXXXXX",
"XXXXXXXXXXXXXXXXXXXXXXXXXXXXXXXXXXXXXXXX  ...  ...  XXXXXXXXXXXXXXXXXXXXXXXXXXXXXXXXXXXXXXXXXXXXXXXXXXXX  ...  ...  XXXXXXXXXXX",
"XXXXXXXXXXXXXXXXXXXXXXXXXXXXXXXXXXXXXX..  ...  ...  XXXXXXXXXXXXXXXXXXXXXXXXXXXXXXXXXXXXXXXXXXXXXXXXXX..  ...  ...  XXXXXXXXXXX",
"XXXXXXXXXXXXXXXXXXXXXXXXXXXXXXXXXXXXXXXXX....  .......XXXXXXXXXXXXXXXXXXXXXXXXXXXXXXXXXXXXXXXXXXXXXXXXXXX....  .......XXXXXXXXX",
"XXXXXXXXXXXXXXXXXXXXXXXXXX X  X      X         ....XXXXXXXXXXXXXXXXXXXXXXXXXXXXXXXXXXXXXXX X  X      X         ....XXXXXXXXXXXX",
"XXXXXXXXXXXXXXXXXXXXXXXXXX.X..X......X.......  ........X.XXXXXXXXXXXXXXXXXXXXXXXXXXXXXXXXX.X..X......X.......  ........X.XXXXXX",
"XXXXXXXXXXXXXXXXXXXXXXXXXXXXXXXXXXXXXXXX.....  ....X.XXXXXXXXXXXXXXXXXXXXXXXXXXXXXXXXXXXXXXXXXXXXXXXXXXX.....  ....X.XXXXXXXXXX",
"............................................    ............................................................    ...............",
"                                                                                                                               ",
"                                                                                                                               ",
"..............    ............................................................    .............................................",
"XXXXXXXXXXX....  ..XXXXXXXXXXXXXXXXXXXXXXXXXXXXXXXXXXXXXXXXXXXXXXXXXXXXXXXX....  ..XXXXXXXXXXXXXXXXXXXXXXXXXXXXXXXXXXXXXXXXXXXX",
"XXXXXX.X.......  .......X.XXXXXXXXXXXXXXXXXXXXXXXXXXXXXXXXXXXXXXXXXXXX.X.......  .......X.XXXXXXXXXXXXXXXXXXXXXXXXXXXXXXXXXXXXX",
"XXXXXXXXXXXX...  ....XXXXXXXXXXXXXXXXXXXXXXoXoooooooooXXXXXXXXXXXXXXXXXXXXXX...  ....XXXXXXXXXXXXXXXXXXXXXXoXoooooooooXXXXXXXXX",
"XXXXXXXXX......  ......XXXXXXXXXXXXXXXXXXXXoXoooooooooXXXXXXXXXXXXXXXXXXX......  ......XXXXXXXXXXXXXXXXXXXXoXoooooooooXXXXXXXXX",
"XXXXXXXXXXXXX..         X  X XXXXXXXXXXXXXXXXXXXXXXoXXXXXXXXXXXXXXXXXXXXXXXXX..         X  X XXXXXXXXXXXXXXXXXXXXXXoXXXXXXXXXXX",
"XXXXXXXXXX.....   ......X..X.XXXXXXXXXXXXXXXXXXXXooooooXoXXXXXXXXXXXXXXXXX.....   ......X..X.XXXXXXXXXXXXXXXXXXXXooooooXoXXXXXX",
"XXXXXXXXXX  ...  ...  XXXXXXXXXXXXXXXXXXXXXXXXXXXXXXXXXXXXXXXXXXXXXXXXXXXX  ...  ...  XXXXXXXXXXXXXXXXXXXXXXXXXXXXXXXXXXXXXXXXX",
"XXXXXXXX..  ...  ...  XXXXXXXXXXXXXXXXXXXXXXXXXXXXXXXXXXXXXXXXXXXXXXXXXX..  ...  ...  XXXXXXXXXXXXXXXXXXXXXXXXXXXXXXXXXXXXXXXXX",
"XXXXXXXXXXXX..   ......X.XXXXXXXXXXXXXXXXXXXXXXXXXXXXXXXXXXXXXXXXXXXXXXXXXXX..   ......X.XXXXXXXXXXXXXXXXXXXXXXXXXXXXXXXXXXXXXX",
"XX X  X          ....XXXXXXXXXXXXXXXXXXXXXXXXXXXXXXXXXXXXXXXXXXXXX X  X          ....XXXXXXXXXXXXXXXXXXXXXXXXXXXXXXXXXXXXXXXXXX",
"XX.X..X........  .........XXXXXXXXXXXXXXXXXXXXXXXXXXXXXXXXXXXXXXXX.X..X........  .........XXXXXXXXXXXXXXXXXXXXXXXXXXXXXXXXXXXXX",
"XXXXXXXXXX.....  ......X.XXXXXXXXXXXXXXXXXXXXXXXXXXXXXXXXXXXXXXXXXXXXXXXXX.....  ......X.XXXXXXXXXXXXXXXXXXXXXXXXXXXXXXXXXXXXXX",
"..............    ............................................................    .............................................",
"                                                                                                                               ",
"                                                                                                                               ",
"............................................    ............................................................    ...............",
"XXXXXXXXXXXXXXXXXXXXXXXXXXXXXXXXXXXXXXXXXX...  ...XXXXXXXXXXXXXXXXXXXXXXXXXXXXXXXXXXXXXXXXXXXXXXXXXXXXXXXX...  ...XXXXXXXXXXXXX",
"XoooooooXXXXXXXXXXXXXXXXXXXXXXXXXXXXXXXX.....  ......X.XXXXXXXXXXoooooooXXXXXXXXXXXXXXXXXXXXXXXXXXXXXXXX.....  ......X.XXXXXXXX",
"XXXXooXXXXXXXXXXXXXXXXXXXXXXXXXXXXX X          ....XXXXXXXXXXXXXXXXXooXXXXXXXXXXXXXXXXXXXXXXXXXXXXX X          ....XXXXXXXXXXXX",
"XXXoooooXoXXXXXXXXXXXXXXXXXXXXXXXXX.X........  ......XXXXXXXXXXXXXXoooooXoXXXXXXXXXXXXXXXXXXXXXXXXX.X........  ......XXXXXXXXXX",
"XXXoooooXoXXXXXXXXXXXXXXXXXXXXXXXXXXXXXX  ...  ...  XXXXXXXXXXXXXXXoooooXoXXXXXXXXXXXXXXXXXXXXXXXXXXXXXX  ...  ...  XXXXXXXXXXX",
"XXXXXXXXXXXXXXXXXXXXXXXXXXXXXXXXXXXXXXX.  ...  ...  XXXXXXXXXXXXXXXXXXXXXXXXXXXXXXXXXXXXXXXXXXXXXXXXXXX.  ...  ...  XXXXXXXXXXX"
};
